<?xml version="1.0" encoding="utf-8"?>
<!-- Generator: Adobe Illustrator 22.0.1, SVG Export Plug-In . SVG Version: 6.00 Build 0)  -->
<!DOCTYPE svg PUBLIC "-//W3C//DTD SVG 1.1//EN" "http://www.w3.org/Graphics/SVG/1.1/DTD/svg11.dtd">
<svg version="1.1" id="Layer_1" xmlns="http://www.w3.org/2000/svg" xmlns:xlink="http://www.w3.org/1999/xlink" x="0px" y="0px"
	 viewBox="0 0 198 36" style="enable-background:new 0 0 198 36;" xml:space="preserve">
<style type="text/css">
	.Drop_x0020_Shadow{fill:none;}
	.Round_x0020_Corners_x0020_2_x0020_pt{fill:#FFFFFF;stroke:#231F20;stroke-miterlimit:10;}
	.Live_x0020_Reflect_x0020_X{fill:none;}
	.Bevel_x0020_Soft{fill:url(#SVGID_1_);}
	.Dusk{fill:#FFFFFF;}
	.Foliage_GS{fill:#FFDD00;}
	.Pompadour_GS{fill-rule:evenodd;clip-rule:evenodd;fill:#44ADE2;}
	.st0{fill:#FFFFFF;}
	.st1{fill:#0080A2;}
	.st2{fill:#F16522;}
</style>
<linearGradient id="SVGID_1_" gradientUnits="userSpaceOnUse" x1="0" y1="0" x2="0.7071" y2="0.7071">
	<stop  offset="0" style="stop-color:#DEDFE3"/>
	<stop  offset="0.1783" style="stop-color:#DADBDF"/>
	<stop  offset="0.3611" style="stop-color:#CECFD3"/>
	<stop  offset="0.546" style="stop-color:#B9BCBF"/>
	<stop  offset="0.7324" style="stop-color:#9CA0A2"/>
	<stop  offset="0.9181" style="stop-color:#787D7E"/>
	<stop  offset="1" style="stop-color:#656B6C"/>
</linearGradient>
<path class="st0" d="M56.1,19.5c0.4-0.4,0.7-0.8,0.9-1.4l-0.8-0.4c-0.2,0.5-0.5,0.9-0.8,1.2c-0.3,0.3-0.7,0.6-1.1,0.8
	c-0.4,0.2-0.8,0.4-1.2,0.5c-0.4,0.1-0.8,0.2-1.2,0.2c-0.7,0-1.4-0.2-2.1-0.5c-0.6-0.3-1.2-0.8-1.7-1.3c-0.5-0.6-0.8-1.2-1.1-1.9
	c-0.3-0.7-0.4-1.5-0.4-2.3c0-0.7,0.1-1.4,0.3-2.1c0.2-0.7,0.6-1.3,1-1.9c0.4-0.6,1-1,1.6-1.4c0.6-0.3,1.4-0.5,2.2-0.5
	c0.4,0,0.8,0,1.2,0.1c0.4,0.1,0.8,0.2,1.1,0.4c0.4,0.2,0.7,0.5,1,0.8c0.3,0.3,0.6,0.7,0.8,1.2l0.8-0.5c-0.4-0.9-1-1.6-1.8-2.1
	c-0.8-0.6-1.8-0.8-3-0.8c-1,0-1.9,0.2-2.6,0.6c-0.8,0.4-1.4,0.9-2,1.6c-0.5,0.6-0.9,1.4-1.2,2.2c-0.3,0.8-0.4,1.6-0.4,2.4
	c0,0.9,0.2,1.7,0.5,2.5s0.7,1.6,1.3,2.2c0.5,0.7,1.2,1.2,1.9,1.6c0.7,0.4,1.6,0.6,2.5,0.6c0.5,0,1-0.1,1.6-0.2
	c0.5-0.1,1-0.3,1.5-0.6C55.3,20.2,55.8,19.9,56.1,19.5z"/>
<polygon class="st0" points="69.7,21.2 69.7,7.6 68.7,7.6 68.7,13.8 60.4,13.8 60.4,7.6 59.4,7.6 59.4,21.2 60.4,21.2 60.4,14.7 
	68.7,14.7 68.7,21.2 "/>
<path class="st0" d="M74.1,16h4.3l3.2,5.1h1.1l-3.3-5.3c0.5-0.1,0.9-0.2,1.3-0.5c0.4-0.2,0.7-0.5,1-0.9c0.3-0.4,0.5-0.8,0.6-1.2
	c0.1-0.5,0.2-0.9,0.2-1.4c0-0.5-0.1-1-0.3-1.5c-0.2-0.5-0.5-1-0.8-1.4c-0.3-0.4-0.7-0.7-1.2-1c-0.5-0.2-1-0.4-1.5-0.4h-5.5v13.5h0.9
	V16z M74.1,8.5h4.5c0.4,0,0.8,0.1,1.1,0.3c0.4,0.2,0.7,0.4,0.9,0.7s0.5,0.7,0.6,1.1c0.2,0.4,0.2,0.8,0.2,1.2c0,0.4-0.1,0.8-0.2,1.2
	c-0.1,0.4-0.3,0.8-0.6,1.1c-0.2,0.3-0.5,0.6-0.9,0.8c-0.3,0.2-0.7,0.3-1.2,0.3h-4.6V8.5z"/>
<rect x="85.3" y="7.7" class="st0" width="0.9" height="13.5"/>
<path class="st0" d="M98.3,19.2c0.2-0.4,0.3-1,0.3-1.6s-0.1-1.1-0.3-1.5c-0.2-0.4-0.5-0.7-0.9-1c-0.4-0.3-0.9-0.5-1.5-0.7
	c-0.6-0.2-1.2-0.4-1.9-0.5c-0.7-0.1-1.2-0.3-1.7-0.4c-0.5-0.1-0.9-0.3-1.2-0.5s-0.5-0.4-0.7-0.7c-0.1-0.3-0.2-0.7-0.2-1.1
	c0-0.9,0.3-1.5,0.9-2c0.6-0.5,1.5-0.8,2.8-0.8c1.6,0,2.8,0.5,3.6,1.5L98,9.1c-0.5-0.5-1.2-0.9-1.8-1.2c-0.7-0.3-1.4-0.4-2.3-0.4
	c-0.7,0-1.3,0.1-1.9,0.2c-0.6,0.2-1.1,0.4-1.5,0.7c-0.4,0.3-0.7,0.7-1,1.2s-0.3,1-0.3,1.6c0,0.6,0.1,1,0.3,1.4
	c0.2,0.4,0.5,0.7,0.8,0.9c0.4,0.3,0.8,0.5,1.4,0.6c0.5,0.2,1.2,0.3,1.9,0.5c0.7,0.2,1.3,0.3,1.8,0.5c0.5,0.2,0.9,0.4,1.3,0.6
	c0.3,0.2,0.6,0.5,0.8,0.8c0.2,0.3,0.3,0.7,0.3,1.1c0,0.9-0.3,1.5-1,2c-0.7,0.4-1.6,0.6-2.7,0.6c-1,0-1.9-0.2-2.7-0.5s-1.5-0.8-2-1.4
	l-0.5,0.8c1.4,1.3,3.2,2,5.2,2c0.7,0,1.3-0.1,1.9-0.2c0.6-0.2,1.1-0.4,1.5-0.7C97.8,20.1,98.1,19.7,98.3,19.2z"/>
<polygon class="st0" points="109,21.2 109.9,21.2 109.9,8.5 114.8,8.5 114.8,7.6 104.2,7.6 104.2,8.5 109,8.5 "/>
<polygon class="st0" points="125.7,20.3 117.9,20.3 117.9,14.7 124.6,14.7 124.6,13.8 117.9,13.8 117.9,8.5 125.5,8.5 125.5,7.6 
	116.9,7.6 116.9,21.2 125.7,21.2 "/>
<path class="st0" d="M129.3,16h4.3l3.2,5.1h1.1l-3.3-5.3c0.5-0.1,0.9-0.2,1.3-0.5c0.4-0.2,0.7-0.5,1-0.9c0.3-0.4,0.5-0.8,0.6-1.2
	c0.1-0.5,0.2-0.9,0.2-1.4c0-0.5-0.1-1-0.3-1.5s-0.5-1-0.8-1.4c-0.3-0.4-0.7-0.7-1.2-1c-0.5-0.2-1-0.4-1.5-0.4h-5.5v13.5h0.9V16z
	 M129.3,8.5h4.5c0.4,0,0.8,0.1,1.1,0.3c0.4,0.2,0.7,0.4,0.9,0.7c0.3,0.3,0.5,0.7,0.6,1.1c0.2,0.4,0.2,0.8,0.2,1.2
	c0,0.4-0.1,0.8-0.2,1.2c-0.1,0.4-0.3,0.8-0.6,1.1c-0.2,0.3-0.5,0.6-0.9,0.8c-0.3,0.2-0.7,0.3-1.2,0.3h-4.6V8.5z"/>
<path class="st0" d="M141.5,16h4.3l3.2,5.1h1.1l-3.3-5.3c0.5-0.1,0.9-0.2,1.3-0.5c0.4-0.2,0.7-0.5,1-0.9c0.3-0.4,0.5-0.8,0.6-1.2
	c0.1-0.5,0.2-0.9,0.2-1.4c0-0.5-0.1-1-0.3-1.5c-0.2-0.5-0.5-1-0.8-1.4c-0.3-0.4-0.7-0.7-1.2-1c-0.5-0.2-1-0.4-1.5-0.4h-5.5v13.5h0.9
	V16z M141.5,8.5h4.5c0.4,0,0.8,0.1,1.1,0.3c0.4,0.2,0.7,0.4,0.9,0.7s0.5,0.7,0.6,1.1c0.2,0.4,0.2,0.8,0.2,1.2c0,0.4-0.1,0.8-0.2,1.2
	c-0.1,0.4-0.3,0.8-0.6,1.1c-0.2,0.3-0.5,0.6-0.9,0.8c-0.3,0.2-0.7,0.3-1.2,0.3h-4.6V8.5z"/>
<path class="st0" d="M154,16.7h6.3l1.8,4.5h1l-5.6-13.5h-0.8l-5.6,13.5h1L154,16.7z M157.1,8.8l2.9,7.1h-5.8L157.1,8.8z"/>
<polygon class="st0" points="164.1,8.5 173.4,8.5 164,20.4 164,21.2 174.5,21.2 174.5,20.3 165.2,20.3 174.5,8.4 174.5,7.6 
	164.1,7.6 "/>
<path class="st0" d="M181,7.6l-5.6,13.5h1l1.8-4.5h6.3l1.8,4.5h1l-5.6-13.5H181z M178.5,15.9l2.9-7.1l2.9,7.1H178.5z"/>
<path class="st0" d="M197.8,16.2c-0.2-0.4-0.5-0.7-0.9-1c-0.4-0.3-0.9-0.5-1.5-0.7c-0.6-0.2-1.2-0.4-1.9-0.5
	c-0.7-0.1-1.2-0.3-1.7-0.4c-0.5-0.1-0.9-0.3-1.2-0.5s-0.5-0.4-0.7-0.7c-0.1-0.3-0.2-0.7-0.2-1.1c0-0.9,0.3-1.5,0.9-2
	c0.6-0.5,1.5-0.8,2.8-0.8c1.6,0,2.8,0.5,3.6,1.5l0.5-0.8c-0.5-0.5-1.2-0.9-1.8-1.2c-0.7-0.3-1.4-0.4-2.3-0.4c-0.7,0-1.3,0.1-1.9,0.2
	c-0.6,0.2-1.1,0.4-1.5,0.7c-0.4,0.3-0.7,0.7-1,1.2s-0.3,1-0.3,1.6c0,0.6,0.1,1,0.3,1.4s0.5,0.7,0.8,0.9c0.4,0.3,0.8,0.5,1.4,0.6
	c0.5,0.2,1.2,0.3,1.9,0.5c0.7,0.2,1.3,0.3,1.8,0.5c0.5,0.2,0.9,0.4,1.3,0.6c0.3,0.2,0.6,0.5,0.8,0.8c0.2,0.3,0.2,0.7,0.2,1.1
	c0,0.9-0.3,1.5-1,2c-0.7,0.4-1.6,0.6-2.7,0.6c-1,0-1.9-0.2-2.7-0.5s-1.5-0.8-2-1.4l-0.5,0.8c1.4,1.3,3.2,2,5.2,2
	c0.7,0,1.3-0.1,1.9-0.2c0.6-0.2,1.1-0.4,1.5-0.7c0.4-0.3,0.7-0.7,1-1.1c0.2-0.4,0.3-1,0.3-1.6S198,16.6,197.8,16.2z"/>
<path class="st0" d="M52.8,30.8V23h-1.8v4c-0.2-0.4-0.5-0.7-1-1c-0.4-0.3-0.9-0.4-1.4-0.4c-0.4,0-0.9,0.1-1.2,0.3
	c-0.4,0.2-0.7,0.5-1,0.8c-0.3,0.3-0.5,0.7-0.6,1.2c-0.2,0.4-0.2,0.9-0.2,1.4c0,0.5,0.1,1,0.2,1.4c0.2,0.4,0.4,0.8,0.7,1.2
	c0.3,0.3,0.6,0.6,1,0.8c0.4,0.2,0.8,0.3,1.3,0.3c0.5,0,0.9-0.1,1.4-0.3c0.4-0.2,0.8-0.6,1-1l0,0.5c0,0.3,0.2,0.5,0.3,0.6
	c0.2,0.1,0.4,0.2,0.8,0.2c0.2,0,0.5,0,0.8-0.1v-1.5c-0.2,0-0.3-0.1-0.4-0.1C52.9,31.1,52.8,31,52.8,30.8z M51.1,30.3
	c-0.1,0.2-0.2,0.3-0.3,0.5s-0.3,0.3-0.4,0.4c-0.1,0.1-0.3,0.2-0.5,0.2c-0.2,0.1-0.3,0.1-0.5,0.1c-0.3,0-0.5-0.1-0.8-0.2
	s-0.4-0.3-0.6-0.4c-0.2-0.2-0.3-0.4-0.4-0.7c-0.1-0.3-0.1-0.5-0.1-0.8c0-0.3,0-0.5,0.1-0.8c0.1-0.3,0.2-0.5,0.4-0.7
	c0.2-0.2,0.3-0.4,0.6-0.5c0.2-0.1,0.5-0.2,0.7-0.2c0.4,0,0.7,0.1,1.1,0.4c0.3,0.3,0.6,0.6,0.7,1V30.3z"/>
<path class="st0" d="M60.5,26.8c-0.3-0.3-0.7-0.6-1.1-0.8c-0.4-0.2-0.9-0.3-1.5-0.3c-0.6,0-1.1,0.1-1.5,0.3
	c-0.5,0.2-0.8,0.5-1.2,0.8c-0.3,0.3-0.6,0.7-0.7,1.2c-0.2,0.4-0.3,0.9-0.3,1.4c0,0.5,0.1,0.9,0.3,1.4c0.2,0.4,0.4,0.8,0.7,1.2
	c0.3,0.3,0.7,0.6,1.1,0.8c0.4,0.2,0.9,0.3,1.5,0.3c0.8,0,1.4-0.2,2-0.5c0.6-0.3,1-0.8,1.2-1.3l-1.5-0.4c-0.1,0.3-0.3,0.5-0.6,0.7
	c-0.3,0.2-0.6,0.3-1,0.3c-0.2,0-0.4,0-0.7-0.1c-0.2-0.1-0.4-0.2-0.6-0.4c-0.2-0.2-0.3-0.3-0.4-0.6c-0.1-0.2-0.2-0.5-0.2-0.7h5.3
	c0-0.1,0-0.2,0-0.3c0-0.1,0-0.2,0-0.3c0-0.5-0.1-0.9-0.2-1.4C61.1,27.5,60.8,27.1,60.5,26.8z M56.1,28.8c0-0.3,0.1-0.5,0.2-0.7
	c0.1-0.2,0.2-0.4,0.4-0.6c0.2-0.2,0.3-0.3,0.5-0.4c0.2-0.1,0.4-0.1,0.7-0.1c0.5,0,0.9,0.2,1.2,0.5c0.3,0.3,0.5,0.7,0.6,1.3H56.1z"/>
<path class="st0" d="M67.5,29.5c-0.2-0.2-0.5-0.3-0.9-0.4c-0.3-0.1-0.8-0.3-1.3-0.4c-0.5-0.1-0.9-0.3-1.1-0.4
	C64.1,28.2,64,28,64,27.8c0-0.3,0.1-0.5,0.3-0.6c0.2-0.1,0.5-0.2,0.8-0.2c0.3,0,0.7,0.1,1,0.2c0.3,0.1,0.7,0.3,1.1,0.5l0.7-1.1
	c-0.4-0.3-0.9-0.5-1.4-0.6c-0.5-0.2-1-0.2-1.5-0.2c-0.4,0-0.8,0.1-1.1,0.2c-0.3,0.1-0.6,0.3-0.9,0.5c-0.3,0.2-0.4,0.4-0.6,0.7
	c-0.1,0.3-0.2,0.6-0.2,1c0,0.3,0,0.5,0.1,0.7c0.1,0.2,0.2,0.4,0.4,0.5c0.2,0.2,0.4,0.3,0.8,0.4c0.3,0.1,0.7,0.2,1.1,0.3
	c0.6,0.1,1,0.3,1.3,0.4c0.3,0.1,0.4,0.3,0.4,0.6s-0.1,0.4-0.3,0.6s-0.5,0.2-0.9,0.2c-0.8,0-1.7-0.3-2.5-0.9L62,32.1
	c0.2,0.1,0.4,0.3,0.7,0.4c0.3,0.1,0.5,0.2,0.8,0.3c0.3,0.1,0.6,0.1,0.9,0.2c0.3,0,0.6,0.1,0.9,0.1c0.4,0,0.8-0.1,1.2-0.2
	c0.4-0.1,0.7-0.3,0.9-0.4c0.2-0.2,0.4-0.4,0.6-0.7c0.1-0.3,0.2-0.6,0.2-0.9c0-0.3-0.1-0.6-0.2-0.8C67.9,29.8,67.7,29.6,67.5,29.5z"
	/>
<rect x="69.2" y="23" class="st0" width="1.8" height="1.8"/>
<rect x="69.2" y="25.8" class="st0" width="1.8" height="7.1"/>
<path class="st0" d="M77.8,27.1c-0.3-0.4-0.6-0.7-1-1c-0.4-0.2-0.9-0.4-1.4-0.4c-0.5,0-0.9,0.1-1.3,0.3c-0.4,0.2-0.7,0.5-1,0.8
	s-0.5,0.7-0.7,1.2c-0.2,0.4-0.2,0.9-0.2,1.4c0,0.5,0.1,0.9,0.2,1.4c0.1,0.4,0.4,0.8,0.6,1.1c0.3,0.3,0.6,0.6,1,0.8
	c0.4,0.2,0.8,0.3,1.3,0.3c0.5,0,0.9-0.1,1.3-0.3c0.4-0.2,0.7-0.5,1-0.9v0.9c0,0.3-0.1,0.6-0.2,0.9c-0.1,0.3-0.3,0.5-0.4,0.6
	c-0.2,0.2-0.4,0.3-0.7,0.4c-0.3,0.1-0.5,0.1-0.8,0.1c-0.5,0-0.9-0.1-1.3-0.3c-0.4-0.2-0.7-0.5-1-0.8l-1,1c0.4,0.5,0.8,0.8,1.3,1.1
	c0.5,0.3,1.2,0.4,1.9,0.4c0.6,0,1.1-0.1,1.5-0.2c0.5-0.2,0.9-0.4,1.2-0.7c0.3-0.3,0.6-0.6,0.8-1.1c0.2-0.4,0.3-0.9,0.3-1.4v-6.7
	h-1.5V27.1z M77.6,30.3c-0.1,0.2-0.1,0.3-0.3,0.5c-0.1,0.1-0.2,0.3-0.4,0.4c-0.1,0.1-0.3,0.2-0.5,0.3c-0.2,0.1-0.4,0.1-0.6,0.1
	c-0.3,0-0.5-0.1-0.8-0.2s-0.4-0.3-0.6-0.4c-0.2-0.2-0.3-0.4-0.4-0.7C74,30,74,29.7,74,29.4c0-0.3,0-0.6,0.1-0.8
	c0.1-0.3,0.2-0.5,0.4-0.7c0.2-0.2,0.3-0.4,0.6-0.5c0.2-0.1,0.5-0.2,0.7-0.2c0.4,0,0.7,0.1,1.1,0.4c0.3,0.3,0.6,0.6,0.7,1V30.3z"/>
<path class="st0" d="M86.9,26.6c-0.1-0.3-0.4-0.5-0.6-0.6c-0.3-0.2-0.6-0.2-1.1-0.2c-0.6,0-1.2,0.1-1.6,0.4
	c-0.5,0.3-0.9,0.6-1.1,1.1v-1.3h-1.6v7.1h1.8v-4.1c0.1-0.2,0.2-0.4,0.3-0.6c0.1-0.2,0.3-0.3,0.4-0.5c0.2-0.1,0.3-0.2,0.5-0.3
	c0.2-0.1,0.4-0.1,0.5-0.1c0.3,0,0.6,0.1,0.8,0.4c0.2,0.3,0.3,0.7,0.3,1.2v4h1.8v-4.4c0-0.3,0-0.7-0.1-1
	C87.2,27.1,87.1,26.8,86.9,26.6z"/>
<path class="st0" d="M94.7,26.8c-0.3-0.3-0.7-0.6-1.1-0.8c-0.4-0.2-0.9-0.3-1.5-0.3c-0.6,0-1.1,0.1-1.5,0.3
	c-0.5,0.2-0.8,0.5-1.2,0.8c-0.3,0.3-0.6,0.7-0.7,1.2c-0.2,0.4-0.3,0.9-0.3,1.4c0,0.5,0.1,0.9,0.3,1.4c0.2,0.4,0.4,0.8,0.7,1.2
	c0.3,0.3,0.7,0.6,1.1,0.8c0.4,0.2,0.9,0.3,1.5,0.3c0.8,0,1.4-0.2,2-0.5c0.6-0.3,1-0.8,1.2-1.3l-1.5-0.4c-0.1,0.3-0.3,0.5-0.6,0.7
	c-0.3,0.2-0.6,0.3-1,0.3c-0.2,0-0.4,0-0.7-0.1c-0.2-0.1-0.4-0.2-0.6-0.4c-0.2-0.2-0.3-0.3-0.4-0.6c-0.1-0.2-0.2-0.5-0.2-0.7h5.3
	c0-0.1,0-0.2,0-0.3c0-0.1,0-0.2,0-0.3c0-0.5-0.1-0.9-0.2-1.4C95.3,27.5,95,27.1,94.7,26.8z M90.3,28.8c0-0.3,0.1-0.5,0.2-0.7
	c0.1-0.2,0.2-0.4,0.4-0.6c0.2-0.2,0.3-0.3,0.5-0.4c0.2-0.1,0.4-0.1,0.7-0.1c0.5,0,0.9,0.2,1.2,0.5c0.3,0.3,0.5,0.7,0.6,1.3H90.3z"/>
<path class="st0" d="M100.5,25.7c-0.4,0-0.8,0.1-1.2,0.4c-0.4,0.3-0.7,0.7-0.9,1.2v-1.5h-1.6v7.1h1.8v-4.3c0.2-0.4,0.5-0.7,0.9-0.9
	c0.4-0.2,0.9-0.3,1.4-0.3v-1.6c0,0-0.1,0-0.1,0C100.7,25.7,100.6,25.7,100.5,25.7z"/>
<polygon class="st0" points="101,32.9 102.9,32.9 109.4,23.3 107.5,23.3 "/>
<path class="st0" d="M116.8,30.8V23h-1.8v4c-0.2-0.4-0.5-0.7-1-1c-0.4-0.3-0.9-0.4-1.4-0.4c-0.4,0-0.9,0.1-1.2,0.3
	c-0.4,0.2-0.7,0.5-1,0.8c-0.3,0.3-0.5,0.7-0.6,1.2c-0.2,0.4-0.2,0.9-0.2,1.4c0,0.5,0.1,1,0.2,1.4c0.2,0.4,0.4,0.8,0.7,1.2
	c0.3,0.3,0.6,0.6,1,0.8c0.4,0.2,0.8,0.3,1.3,0.3c0.5,0,0.9-0.1,1.4-0.3c0.4-0.2,0.8-0.6,1-1l0,0.5c0,0.3,0.2,0.5,0.3,0.6
	c0.2,0.1,0.4,0.2,0.8,0.2c0.2,0,0.5,0,0.8-0.1v-1.5c-0.2,0-0.3-0.1-0.4-0.1C116.9,31.1,116.8,31,116.8,30.8z M115.1,30.3
	c-0.1,0.2-0.2,0.3-0.3,0.5s-0.3,0.3-0.4,0.4c-0.1,0.1-0.3,0.2-0.5,0.2c-0.2,0.1-0.3,0.1-0.5,0.1c-0.3,0-0.5-0.1-0.8-0.2
	s-0.4-0.3-0.6-0.4c-0.2-0.2-0.3-0.4-0.4-0.7c-0.1-0.3-0.1-0.5-0.1-0.8c0-0.3,0-0.5,0.1-0.8c0.1-0.3,0.2-0.5,0.4-0.7
	c0.2-0.2,0.3-0.4,0.6-0.5c0.2-0.1,0.5-0.2,0.7-0.2c0.4,0,0.7,0.1,1.1,0.4c0.3,0.3,0.6,0.6,0.7,1V30.3z"/>
<path class="st0" d="M124.5,26.8c-0.3-0.3-0.7-0.6-1.1-0.8c-0.4-0.2-0.9-0.3-1.5-0.3c-0.6,0-1.1,0.1-1.5,0.3
	c-0.5,0.2-0.8,0.5-1.2,0.8c-0.3,0.3-0.6,0.7-0.7,1.2c-0.2,0.4-0.3,0.9-0.3,1.4c0,0.5,0.1,0.9,0.3,1.4c0.2,0.4,0.4,0.8,0.7,1.2
	c0.3,0.3,0.7,0.6,1.1,0.8c0.4,0.2,0.9,0.3,1.5,0.3c0.8,0,1.4-0.2,2-0.5c0.6-0.3,1-0.8,1.2-1.3l-1.5-0.4c-0.1,0.3-0.3,0.5-0.6,0.7
	c-0.3,0.2-0.6,0.3-1,0.3c-0.2,0-0.4,0-0.7-0.1c-0.2-0.1-0.4-0.2-0.6-0.4c-0.2-0.2-0.3-0.3-0.4-0.6c-0.1-0.2-0.2-0.5-0.2-0.7h5.3
	c0-0.1,0-0.2,0-0.3c0-0.1,0-0.2,0-0.3c0-0.5-0.1-0.9-0.2-1.4C125,27.5,124.8,27.1,124.5,26.8z M120.1,28.8c0-0.3,0.1-0.5,0.2-0.7
	c0.1-0.2,0.2-0.4,0.4-0.6c0.2-0.2,0.3-0.3,0.5-0.4c0.2-0.1,0.4-0.1,0.7-0.1c0.5,0,0.9,0.2,1.2,0.5c0.3,0.3,0.5,0.7,0.6,1.3H120.1z"
	/>
<polygon class="st0" points="129.2,31.4 127.5,25.8 125.6,25.8 128.2,32.9 130.1,32.9 132.6,25.8 131,25.8 "/>
<path class="st0" d="M139.4,26.8c-0.3-0.3-0.7-0.6-1.1-0.8c-0.4-0.2-0.9-0.3-1.5-0.3c-0.6,0-1.1,0.1-1.5,0.3
	c-0.5,0.2-0.8,0.5-1.2,0.8c-0.3,0.3-0.6,0.7-0.7,1.2c-0.2,0.4-0.3,0.9-0.3,1.4c0,0.5,0.1,0.9,0.3,1.4c0.2,0.4,0.4,0.8,0.7,1.2
	c0.3,0.3,0.7,0.6,1.1,0.8c0.4,0.2,0.9,0.3,1.5,0.3c0.8,0,1.4-0.2,2-0.5c0.6-0.3,1-0.8,1.2-1.3l-1.5-0.4c-0.1,0.3-0.3,0.5-0.6,0.7
	c-0.3,0.2-0.6,0.3-1,0.3c-0.2,0-0.4,0-0.7-0.1c-0.2-0.1-0.4-0.2-0.6-0.4s-0.3-0.3-0.4-0.6c-0.1-0.2-0.2-0.5-0.2-0.7h5.3
	c0-0.1,0-0.2,0-0.3c0-0.1,0-0.2,0-0.3c0-0.5-0.1-0.9-0.2-1.4C139.9,27.5,139.7,27.1,139.4,26.8z M134.9,28.8c0-0.3,0.1-0.5,0.2-0.7
	c0.1-0.2,0.2-0.4,0.4-0.6c0.2-0.2,0.3-0.3,0.5-0.4c0.2-0.1,0.4-0.1,0.7-0.1c0.5,0,0.9,0.2,1.2,0.5c0.3,0.3,0.5,0.7,0.6,1.3H134.9z"
	/>
<path class="st0" d="M144.2,31.3c-0.1,0-0.2,0.1-0.3,0.1c-0.5,0-0.7-0.3-0.7-0.8V23h-1.8v8.2c0,0.6,0.2,1,0.5,1.3
	c0.3,0.3,0.7,0.5,1.3,0.5c0.3,0,0.5,0,0.9-0.1c0.3-0.1,0.6-0.2,0.8-0.3l-0.2-1.4C144.5,31.2,144.4,31.3,144.2,31.3z"/>
<path class="st0" d="M151.4,26.8c-0.3-0.3-0.7-0.6-1.1-0.8c-0.4-0.2-0.9-0.3-1.5-0.3c-0.6,0-1.1,0.1-1.5,0.3
	c-0.4,0.2-0.8,0.5-1.1,0.8c-0.3,0.3-0.6,0.7-0.7,1.2s-0.3,0.9-0.3,1.4c0,0.5,0.1,0.9,0.3,1.4c0.2,0.4,0.4,0.8,0.7,1.2
	c0.3,0.3,0.7,0.6,1.1,0.8c0.4,0.2,1,0.3,1.5,0.3c0.6,0,1.1-0.1,1.5-0.3c0.4-0.2,0.8-0.5,1.1-0.8c0.3-0.3,0.5-0.7,0.7-1.2
	c0.2-0.4,0.3-0.9,0.3-1.4c0-0.5-0.1-1-0.3-1.4C151.9,27.5,151.7,27.1,151.4,26.8z M150.4,30.2c-0.1,0.3-0.2,0.5-0.4,0.7
	s-0.4,0.3-0.6,0.4c-0.2,0.1-0.5,0.2-0.7,0.2s-0.5-0.1-0.7-0.2c-0.2-0.1-0.4-0.2-0.6-0.4s-0.3-0.4-0.4-0.7c-0.1-0.3-0.1-0.5-0.1-0.9
	c0-0.3,0-0.6,0.1-0.8c0.1-0.3,0.2-0.5,0.4-0.7s0.4-0.3,0.6-0.4c0.2-0.1,0.5-0.2,0.7-0.2s0.5,0.1,0.7,0.2c0.2,0.1,0.4,0.3,0.6,0.4
	s0.3,0.4,0.4,0.7c0.1,0.3,0.1,0.5,0.1,0.9C150.5,29.7,150.5,30,150.4,30.2z"/>
<path class="st0" d="M159.8,26.8c-0.3-0.3-0.6-0.6-1-0.8c-0.4-0.2-0.8-0.3-1.3-0.3c-0.5,0-1,0.1-1.4,0.4c-0.4,0.2-0.7,0.6-1,1v-1.2
	h-1.5v10h1.8v-4.1c0.2,0.4,0.5,0.8,0.9,1c0.4,0.2,0.9,0.4,1.4,0.4c0.4,0,0.8-0.1,1.2-0.3c0.4-0.2,0.7-0.5,1-0.8
	c0.3-0.3,0.5-0.7,0.6-1.2c0.1-0.4,0.2-0.9,0.2-1.4c0-0.5-0.1-1-0.2-1.4C160.3,27.5,160,27.1,159.8,26.8z M158.7,30.2
	c-0.1,0.3-0.2,0.5-0.4,0.7c-0.2,0.2-0.3,0.4-0.6,0.5c-0.2,0.1-0.5,0.2-0.7,0.2c-0.4,0-0.7-0.1-1.1-0.4c-0.3-0.3-0.6-0.6-0.7-1v-1.7
	c0.1-0.2,0.2-0.3,0.3-0.5c0.1-0.1,0.3-0.3,0.4-0.4c0.1-0.1,0.3-0.2,0.5-0.3c0.2-0.1,0.3-0.1,0.5-0.1c0.3,0,0.5,0.1,0.8,0.2
	s0.4,0.3,0.6,0.4c0.2,0.2,0.3,0.4,0.4,0.7c0.1,0.3,0.1,0.5,0.1,0.8C158.9,29.6,158.8,29.9,158.7,30.2z"/>
<path class="st0" d="M167.7,26.8c-0.3-0.3-0.7-0.6-1.1-0.8c-0.4-0.2-0.9-0.3-1.5-0.3c-0.6,0-1.1,0.1-1.5,0.3
	c-0.5,0.2-0.8,0.5-1.2,0.8c-0.3,0.3-0.6,0.7-0.7,1.2c-0.2,0.4-0.3,0.9-0.3,1.4c0,0.5,0.1,0.9,0.3,1.4c0.2,0.4,0.4,0.8,0.7,1.2
	c0.3,0.3,0.7,0.6,1.1,0.8c0.4,0.2,0.9,0.3,1.5,0.3c0.8,0,1.4-0.2,2-0.5c0.6-0.3,1-0.8,1.2-1.3l-1.5-0.4c-0.1,0.3-0.3,0.5-0.6,0.7
	c-0.3,0.2-0.6,0.3-1,0.3c-0.2,0-0.4,0-0.7-0.1c-0.2-0.1-0.4-0.2-0.6-0.4s-0.3-0.3-0.4-0.6c-0.1-0.2-0.2-0.5-0.2-0.7h5.3
	c0-0.1,0-0.2,0-0.3c0-0.1,0-0.2,0-0.3c0-0.5-0.1-0.9-0.2-1.4C168.3,27.5,168,27.1,167.7,26.8z M163.3,28.8c0-0.3,0.1-0.5,0.2-0.7
	c0.1-0.2,0.2-0.4,0.4-0.6c0.2-0.2,0.3-0.3,0.5-0.4c0.2-0.1,0.4-0.1,0.7-0.1c0.5,0,0.9,0.2,1.2,0.5c0.3,0.3,0.5,0.7,0.6,1.3H163.3z"
	/>
<path class="st0" d="M173.5,25.7c-0.4,0-0.8,0.1-1.2,0.4c-0.4,0.3-0.7,0.7-0.9,1.2v-1.5h-1.6v7.1h1.8v-4.3c0.2-0.4,0.5-0.7,0.9-0.9
	c0.4-0.2,0.9-0.3,1.4-0.3v-1.6c0,0-0.1,0-0.1,0C173.7,25.7,173.6,25.7,173.5,25.7z"/>
<polygon class="st1" points="16.3,-0.1 16.3,-0.1 16.3,-0.1 "/>
<path class="st1" d="M16.3,7.4C16.3,7.4,16.3,7.4,16.3,7.4c3.7,0,6.8,3.1,6.8,7v11.1h8.8V14.4c0-3.8,3-7,6.8-7h0v-7.5H16.3V7.4z"/>
<path class="st2" d="M16.7,25.4c-4.8,0-9.1-3.8-9.2-8.8c-0.1-5.1,3.9-9.2,8.8-9.3c0,0,0,0,0,0v-7.5c0,0,0,0,0,0
	C7.1-0.1-0.3,7.7,0.2,17.2C0.6,26.1,8,32.9,16.7,32.9h21.8v-7.5h-6.6H23H16.7z"/>
</svg>
