<?xml version="1.0" encoding="utf-8"?>
<!-- Generator: Adobe Illustrator 23.0.1, SVG Export Plug-In . SVG Version: 6.00 Build 0)  -->
<svg version="1.1" id="Layer_1" xmlns="http://www.w3.org/2000/svg" xmlns:xlink="http://www.w3.org/1999/xlink" x="0px" y="0px"
	 viewBox="0 0 72 72" style="enable-background:new 0 0 72 72;" xml:space="preserve">
<style type="text/css">
	.st0{fill:#563D7C;}
	.st1{fill:#FFFFFF;}
</style>
<g>
	<path class="st0" d="M36,0C16.13,0,0,16.13,0,36s16.13,36,36,36s36-16.13,36-36S55.87,0,36,0z"/>
	<path class="st1" d="M29.86,31.85v-10.2h8.97c0.85,0,1.68,0.07,2.47,0.21c0.79,0.14,1.5,0.4,2.11,0.76
		c0.61,0.37,1.1,0.88,1.47,1.53c0.37,0.65,0.55,1.49,0.55,2.5c0,1.83-0.55,3.15-1.65,3.97c-1.1,0.81-2.5,1.22-4.21,1.22L29.86,31.85
		L29.86,31.85z M20.27,14.2V57.8H41.4c1.95,0,3.86-0.24,5.71-0.73c1.85-0.49,3.5-1.24,4.95-2.26c1.44-1.02,2.59-2.33,3.45-3.94
		c0.85-1.61,1.28-3.51,1.28-5.71c0-2.73-0.66-5.06-1.98-6.99c-1.32-1.93-3.33-3.29-6.01-4.06c1.95-0.94,3.43-2.14,4.43-3.6
		c1-1.47,1.5-3.3,1.5-5.5c0-2.04-0.34-3.74-1.01-5.13c-0.67-1.38-1.62-2.49-2.84-3.33c-1.22-0.83-2.69-1.43-4.4-1.8
		c-1.71-0.37-3.6-0.55-5.68-0.55L20.27,14.2L20.27,14.2z M29.86,50.35V38.38H40.3c2.08,0,3.74,0.48,5.01,1.43
		c1.26,0.96,1.89,2.55,1.89,4.79c0,1.14-0.19,2.08-0.58,2.81s-0.91,1.31-1.56,1.74c-0.65,0.43-1.4,0.73-2.26,0.92
		c-0.85,0.18-1.75,0.27-2.69,0.27H29.86L29.86,50.35z"/>
</g>
</svg>
