<?xml version="1.0" encoding="utf-8"?>
<!-- Generator: Adobe Illustrator 23.0.1, SVG Export Plug-In . SVG Version: 6.00 Build 0)  -->
<svg version="1.1" id="Layer_1" xmlns="http://www.w3.org/2000/svg" xmlns:xlink="http://www.w3.org/1999/xlink" x="0px" y="0px"
	 viewBox="0 0 72 72" style="enable-background:new 0 0 72 72;" xml:space="preserve">
<style type="text/css">
	.st0{fill:#9CDAF0;}
	.st1{fill:#201F1F;}
</style>
<g>
	<g>
		<g>
			<circle class="st0" cx="36" cy="36" r="36"/>
		</g>
	</g>
	<g>
		<g>
			<path class="st1" d="M39.6,44.86c4.46-0.5,9.29-2.16,9.29-9.94c0-2.23-0.79-4.03-2.02-5.4c0.22-0.5,0.86-2.52-0.22-5.33
				c0,0-1.66-0.5-5.47,2.02c-1.66-0.43-3.46-0.72-5.11-0.72c-1.73,0-3.53,0.29-5.11,0.72c-3.89-2.59-5.54-2.02-5.54-2.02
				c-1.08,2.81-0.43,4.75-0.22,5.33c-1.3,1.37-2.02,3.17-2.02,5.4c0,7.78,4.75,9.36,9.29,9.94c-0.58,0.5-1.08,1.44-1.3,2.74
				c-1.15,0.5-4.1,1.44-5.9-1.66c0,0-1.08-1.94-3.1-2.02c0,0-2.02-0.07-0.14,1.22c0,0,1.37,0.65,2.23,2.95c0,0,1.22,3.89,6.84,2.66
				v3.46c0,0.5-0.43,1.15-1.44,1.01C21.6,52.49,15.84,44.86,15.84,36c0-11.16,9-20.16,20.16-20.16c11.09,0,20.16,9,20.16,20.16
				c0,8.93-5.76,16.42-13.75,19.15c-1.01,0.22-1.44-0.43-1.44-1.01v-5.62C40.97,46.66,40.32,45.43,39.6,44.86L39.6,44.86z M59.04,36
				c0-12.74-10.3-23.04-23.04-23.04S12.96,23.26,12.96,36c0,12.67,10.3,23.04,23.04,23.04S59.04,48.74,59.04,36L59.04,36z"/>
		</g>
	</g>
</g>
</svg>
