<?xml version="1.0" encoding="utf-8"?>
<!-- Generator: Adobe Illustrator 23.0.1, SVG Export Plug-In . SVG Version: 6.00 Build 0)  -->
<svg version="1.1" id="Layer_1" xmlns="http://www.w3.org/2000/svg" xmlns:xlink="http://www.w3.org/1999/xlink" x="0px" y="0px"
	 viewBox="0 0 72 72" style="enable-background:new 0 0 72 72;" xml:space="preserve">
<style type="text/css">
	.st0{fill:#261300;}
	.st1{fill:#FF7F18;}
</style>
<g>
	<g>
		<path class="st0" d="M36,69.98C17.28,69.98,2.02,54.72,2.02,36S17.28,2.02,36,2.02S69.98,17.28,69.98,36S54.72,69.98,36,69.98z"/>
		<path class="st1" d="M36,4.1c17.57,0,31.9,14.33,31.9,31.9S53.57,67.9,36,67.9S4.1,53.57,4.1,36S18.43,4.1,36,4.1 M36,0
			C16.13,0,0,16.13,0,36s16.13,36,36,36s36-16.13,36-36S55.87,0,36,0L36,0z"/>
	</g>
	<path class="st1" d="M45.79,29.3c0-0.22,0.07-0.29,0.29-0.29h4.1c0.22,0,0.29,0.07,0.29,0.29v20.81c0,0.22-0.07,0.29-0.29,0.29
		h-4.1c-0.29,0-0.36-0.14-0.36-0.36L45.79,29.3L45.79,29.3L45.79,29.3z M45.5,23.33c0-1.66,1.15-2.66,2.66-2.66
		c1.58,0,2.66,1.08,2.66,2.66c0,1.73-1.15,2.66-2.74,2.66C46.58,25.99,45.5,25.06,45.5,23.33z M33.62,37.94
		c-0.72-2.95-2.45-9.29-3.17-12.38h-0.07c-0.58,3.1-1.94,8.28-3.02,12.38H33.62z M26.35,42.26l-2.09,7.92
		c-0.07,0.22-0.14,0.29-0.36,0.29h-3.89c-0.29,0-0.29-0.07-0.29-0.36l7.49-26.14c0.14-0.5,0.22-0.86,0.29-2.16
		c0-0.22,0.07-0.29,0.22-0.29h5.54c0.22,0,0.29,0.07,0.29,0.29l8.35,28.44c0.07,0.22,0,0.36-0.22,0.36H37.3
		c-0.22,0-0.36-0.07-0.36-0.22l-2.16-7.92h-8.42V42.26z"/>
</g>
</svg>
