<?xml version="1.0" encoding="utf-8"?>
<!-- Generator: Adobe Illustrator 23.0.1, SVG Export Plug-In . SVG Version: 6.00 Build 0)  -->
<svg version="1.1" id="Layer_1" xmlns="http://www.w3.org/2000/svg" xmlns:xlink="http://www.w3.org/1999/xlink" x="0px" y="0px"
	 viewBox="0 0 72 72" style="enable-background:new 0 0 72 72;" xml:space="preserve">
<style type="text/css">
	.st0{fill:#26000F;}
	.st1{fill:#FF408C;}
</style>
<g>
	<g>
		<path class="st0" d="M36,69.98C17.28,69.98,2.02,54.72,2.02,36S17.28,2.02,36,2.02S69.98,17.28,69.98,36S54.72,69.98,36,69.98z"/>
		<path class="st1" d="M36,4.1c17.57,0,31.9,14.33,31.9,31.9S53.57,67.9,36,67.9S4.1,53.57,4.1,36S18.43,4.1,36,4.1 M36,0
			C16.13,0,0,16.13,0,36s16.13,36,36,36s36-16.13,36-36S55.87,0,36,0L36,0z"/>
	</g>
	<path class="st1" d="M44.21,32.9c-0.36-0.22-0.94-0.29-1.51-0.29c-3.31,0-5.69,2.59-5.69,6.84c0,4.82,2.38,6.84,5.33,6.84
		c0.65,0,1.3-0.07,1.8-0.29V32.9H44.21z M42.84,28.66c0.58,0,0.86,0,1.37,0.07v-6.84c0-0.22,0.14-0.29,0.29-0.29h4.18
		c0.22,0,0.29,0.07,0.29,0.22v24.12c0,0.72,0,1.66,0.14,2.59c0,0.22-0.07,0.22-0.22,0.29c-2.23,1.08-4.54,1.51-6.77,1.51
		c-5.69,0-9.79-3.53-9.79-10.73C32.18,33.48,36.29,28.66,42.84,28.66L42.84,28.66z M27.65,49.68c0,0.29-0.07,0.36-0.36,0.36h-3.96
		c-0.29,0-0.36-0.14-0.36-0.36V21.96c0-0.29,0.14-0.36,0.36-0.36h4.03c0.22,0,0.29,0.07,0.29,0.29V49.68z"/>
</g>
</svg>
