<?xml version="1.0" encoding="utf-8"?>
<!-- Generator: Adobe Illustrator 23.0.1, SVG Export Plug-In . SVG Version: 6.00 Build 0)  -->
<svg version="1.1" id="Layer_1" xmlns="http://www.w3.org/2000/svg" xmlns:xlink="http://www.w3.org/1999/xlink" x="0px" y="0px"
	 viewBox="0 0 72 72" style="enable-background:new 0 0 72 72;" xml:space="preserve">
<style type="text/css">
	.st0{fill:#F0DB4F;}
	.st1{fill:#323330;}
</style>
<g>
	<g>
		<g>
			<circle class="st0" cx="36" cy="36" r="36"/>
		</g>
	</g>
	<g id="Layer_1_1_">
		<g>
			<g>
				<path class="st1" d="M24.77,22.03h6.26v17.64c0,7.92-3.82,10.73-9.86,10.73c-1.51,0-3.38-0.22-4.61-0.65l0.72-5.11
					c0.86,0.29,2.02,0.5,3.24,0.5c2.66,0,4.32-1.22,4.32-5.47L24.77,22.03L24.77,22.03z"/>
				<path class="st1" d="M36.58,43.49c1.66,0.86,4.32,1.73,6.98,1.73c2.88,0,4.39-1.22,4.39-3.1c0-1.73-1.3-2.74-4.68-3.89
					c-4.61-1.66-7.7-4.25-7.7-8.35c0-4.68,4.03-8.28,10.58-8.28c3.17,0,5.47,0.65,7.13,1.44l-1.44,5.04c-1.08-0.5-3.1-1.3-5.76-1.3
					c-2.74,0-4.03,1.3-4.03,2.66c0,1.8,1.51,2.59,5.18,3.96c4.9,1.8,7.2,4.39,7.2,8.35c0,4.68-3.53,8.64-11.23,8.64
					c-3.17,0-6.34-0.86-7.92-1.73L36.58,43.49z"/>
			</g>
		</g>
	</g>
</g>
</svg>
