<?xml version="1.0" encoding="utf-8"?>
<!-- Generator: Adobe Illustrator 23.0.1, SVG Export Plug-In . SVG Version: 6.00 Build 0)  -->
<svg version="1.1" id="Layer_1" xmlns="http://www.w3.org/2000/svg" xmlns:xlink="http://www.w3.org/1999/xlink" x="0px" y="0px"
	 viewBox="0 0 72 72" style="enable-background:new 0 0 72 72;" xml:space="preserve">
<style type="text/css">
	.st0{fill:#0769AD;}
	.st1{fill:#78CFF5;}
</style>
<g>
	<g>
		<g>
			<circle class="st0" cx="36" cy="36" r="36"/>
		</g>
	</g>
	<g id="Layer_6">
		<g>
			<g>
				<path class="st1" d="M16.42,25.85c-3.74,5.4-3.31,12.46-0.43,18.22c0.07,0.14,0.14,0.29,0.22,0.43
					c0.07,0.07,0.07,0.14,0.14,0.29c0,0.07,0.07,0.07,0.07,0.14c0.07,0.07,0.07,0.14,0.14,0.29c0.07,0.14,0.22,0.29,0.29,0.5
					c0.07,0.07,0.07,0.14,0.14,0.29c0.07,0.14,0.22,0.36,0.29,0.5c0.07,0.07,0.07,0.14,0.14,0.22c0.14,0.22,0.29,0.43,0.43,0.65l0,0
					l0.07,0.07c0.14,0.22,0.29,0.36,0.43,0.58c0.07,0.07,0.07,0.14,0.14,0.22c0.14,0.14,0.29,0.29,0.36,0.5
					c0.07,0.07,0.07,0.14,0.14,0.14c0.14,0.22,0.36,0.43,0.58,0.65l0,0l0,0c0.22,0.22,0.36,0.36,0.58,0.58
					c0.07,0.07,0.14,0.14,0.14,0.14c0.14,0.14,0.29,0.29,0.43,0.43c0.07,0.07,0.14,0.14,0.22,0.14c0.22,0.22,0.43,0.36,0.58,0.58
					l0,0l0.07,0.07c0.22,0.14,0.36,0.29,0.58,0.43c0.07,0.07,0.14,0.14,0.22,0.22c0.14,0.14,0.29,0.22,0.43,0.36
					c0.07,0.07,0.14,0.14,0.22,0.22c0.14,0.14,0.36,0.22,0.5,0.36c0.07,0.07,0.14,0.07,0.22,0.14c0,0,0,0,0.07,0.07
					c0.14,0.14,0.36,0.22,0.5,0.36c0.07,0.07,0.14,0.07,0.22,0.14c0.29,0.14,0.5,0.29,0.79,0.5c0.07,0.07,0.14,0.07,0.22,0.14
					c0.22,0.14,0.36,0.22,0.58,0.36c0.07,0.07,0.22,0.14,0.29,0.14c0.14,0.07,0.29,0.14,0.43,0.22c0,0,0.07,0,0.07,0.07
					c0.07,0,0.14,0.07,0.14,0.07c0.22,0.07,0.43,0.22,0.65,0.29c0.07,0,0.07,0.07,0.14,0.07c0.29,0.14,0.5,0.22,0.79,0.29
					c0.07,0,0.14,0.07,0.22,0.07c0.22,0.07,0.5,0.22,0.72,0.29h0.07c0.29,0.07,0.58,0.22,0.79,0.29c0.07,0,0.14,0.07,0.22,0.07
					c0.29,0.07,0.58,0.22,0.86,0.22c18.22,3.31,23.54-10.94,23.54-10.94c-4.46,5.83-12.38,7.34-19.8,5.62
					c-0.29-0.07-0.58-0.14-0.86-0.22c-0.07,0-0.14-0.07-0.22-0.07c-0.29-0.07-0.5-0.14-0.79-0.29c-0.07,0-0.07,0-0.14-0.07
					c-0.22-0.07-0.5-0.14-0.72-0.29c-0.07,0-0.14-0.07-0.22-0.07c-0.29-0.07-0.5-0.22-0.79-0.29c-0.07,0-0.07-0.07-0.14-0.07
					c-0.22-0.07-0.43-0.22-0.65-0.29c-0.07,0-0.14-0.07-0.22-0.07c-0.14-0.07-0.36-0.14-0.5-0.29c-0.14-0.07-0.22-0.14-0.36-0.14
					c-0.22-0.14-0.43-0.22-0.58-0.36c-0.07-0.07-0.14-0.07-0.22-0.14c-0.29-0.14-0.5-0.29-0.79-0.5c-0.07-0.07-0.14-0.07-0.22-0.14
					c-0.22-0.14-0.36-0.22-0.58-0.36c-0.07-0.07-0.14-0.07-0.14-0.14c-0.14-0.14-0.36-0.22-0.5-0.36c-0.07-0.07-0.14-0.14-0.22-0.14
					c-0.14-0.14-0.29-0.22-0.5-0.36c-0.07-0.07-0.14-0.14-0.22-0.14c-0.22-0.14-0.36-0.36-0.58-0.5c0,0-0.07,0-0.07-0.07
					c-0.22-0.22-0.43-0.36-0.65-0.58c-0.07-0.07-0.14-0.14-0.14-0.14c-0.14-0.14-0.29-0.29-0.43-0.43
					c-0.07-0.07-0.14-0.14-0.14-0.14c-0.22-0.22-0.36-0.36-0.58-0.58l0,0c-0.22-0.22-0.36-0.43-0.58-0.65
					c-0.07-0.07-0.07-0.14-0.14-0.14c-0.14-0.14-0.29-0.36-0.43-0.5c-0.07-0.07-0.07-0.14-0.14-0.22c-0.14-0.22-0.29-0.43-0.43-0.65
					c-4.18-5.69-5.62-13.46-2.3-19.87"/>
				<path class="st1" d="M28.08,21.24c-2.74,3.96-2.59,9.14-0.43,13.32c0.36,0.72,0.79,1.37,1.22,2.02c0.43,0.58,0.86,1.3,1.37,1.73
					c0.22,0.22,0.43,0.43,0.65,0.65c0.07,0.07,0.07,0.07,0.14,0.14c0.22,0.22,0.43,0.36,0.65,0.58l0,0l0,0
					c0.22,0.22,0.5,0.43,0.72,0.58c0.07,0.07,0.14,0.07,0.14,0.14c0.22,0.22,0.5,0.36,0.79,0.58l0,0c0.14,0.07,0.22,0.14,0.36,0.22
					c0.07,0.07,0.14,0.07,0.14,0.14c0.22,0.14,0.36,0.22,0.58,0.36c0,0,0.07,0,0.07,0.07c0.14,0.07,0.36,0.22,0.5,0.29
					c0.07,0,0.14,0.07,0.14,0.07c0.14,0.07,0.22,0.14,0.36,0.22c0,0,0,0,0.07,0c0.22,0.14,0.5,0.22,0.72,0.36
					c0.07,0,0.07,0.07,0.14,0.07c0.22,0.07,0.43,0.14,0.58,0.22c0.07,0,0.14,0.07,0.29,0.07c0.22,0.07,0.36,0.14,0.58,0.22
					c0.07,0,0.14,0.07,0.22,0.07c0.29,0.07,0.5,0.22,0.79,0.22c14.11,2.3,17.35-8.5,17.35-8.5c-2.95,4.25-8.64,6.26-14.69,4.68
					c-0.29-0.07-0.5-0.14-0.79-0.22c-0.07,0-0.14-0.07-0.22-0.07c-0.22-0.07-0.36-0.14-0.58-0.22c-0.07,0-0.14-0.07-0.22-0.07
					c-0.22-0.07-0.43-0.14-0.58-0.22c-0.07,0-0.14-0.07-0.14-0.07c-0.22-0.14-0.5-0.22-0.72-0.36c-0.14-0.07-0.22-0.14-0.36-0.22
					c-0.07-0.07-0.14-0.07-0.22-0.14c-0.14-0.07-0.29-0.14-0.43-0.29c-0.07,0-0.07-0.07-0.14-0.07c-0.22-0.14-0.36-0.22-0.58-0.36
					c-0.07-0.07-0.14-0.07-0.14-0.14c-0.14-0.07-0.22-0.14-0.36-0.22c-0.29-0.14-0.5-0.36-0.79-0.58c-0.07-0.07-0.14-0.07-0.14-0.14
					c-2.66-2.09-4.75-4.97-5.76-8.21c-1.08-3.38-0.79-7.13,1.01-10.22"/>
				<path class="st1" d="M37.94,17.86c-1.58,2.38-1.8,5.33-0.65,7.92c1.15,2.81,3.6,4.97,6.41,5.98c0.14,0.07,0.22,0.07,0.36,0.14
					c0.07,0,0.07,0,0.14,0.07c0.14,0.07,0.36,0.14,0.5,0.14c7.78,1.51,9.86-3.96,10.44-4.82c-1.87,2.66-4.97,3.31-8.78,2.38
					c-0.29-0.07-0.65-0.22-0.94-0.29c-0.36-0.14-0.72-0.29-1.08-0.43c-0.65-0.36-1.3-0.72-1.94-1.15
					c-3.38-2.59-5.54-7.49-3.31-11.52"/>
			</g>
		</g>
	</g>
</g>
</svg>
