<?xml version="1.0" encoding="utf-8"?>
<!-- Generator: Adobe Illustrator 23.0.1, SVG Export Plug-In . SVG Version: 6.00 Build 0)  -->
<svg version="1.1" id="Layer_1" xmlns="http://www.w3.org/2000/svg" xmlns:xlink="http://www.w3.org/1999/xlink" x="0px" y="0px"
	 viewBox="0 0 72 72" style="enable-background:new 0 0 72 72;" xml:space="preserve">
<style type="text/css">
	.st0{fill:#F3BF00;}
	.st1{fill:#222222;}
</style>
<g>
	<g>
		<g>
			<circle class="st0" cx="36" cy="36" r="36"/>
		</g>
	</g>
	<path class="st1" d="M32.54,23.18c-0.5,0.07-0.29,0.5-0.58,0.5C31.75,23.69,31.75,23.11,32.54,23.18z M34.06,23.26
		c0.43-0.14,0.5,0.36,0.72,0.29C34.99,23.47,34.78,22.97,34.06,23.26z M50.11,54.07c-1.44,0.72-3.31,2.3-4.03,3.02
		c-0.5,0.5-2.66,0.72-3.89,0.14c-1.44-0.72-0.65-1.87-2.88-1.94c-1.08,0-2.16,0-3.24,0c-0.94,0-1.87,0.07-2.88,0.07
		c-3.31,0-3.67,2.16-5.76,2.09c-1.44-0.07-3.24-1.22-6.41-1.87c-2.23-0.43-4.32-0.58-4.75-1.51c-0.43-0.94,0.58-2.09,0.65-3.02
		c0.07-1.3-0.94-2.95-0.22-3.67c0.65-0.58,2.02-0.14,2.88-0.65c0.94-0.5,1.37-0.94,1.37-2.16c0.36,1.15,0,2.16-0.79,2.66
		c-0.43,0.29-1.37,0.43-2.02,0.36c-0.58-0.07-0.94,0.07-1.08,0.29c-0.22,0.29-0.14,0.79,0.14,1.44c0.29,0.65,0.58,1.08,0.58,1.87
		c-0.07,0.79-0.94,1.73-0.79,2.45c0.07,0.29,0.29,0.5,0.94,0.65c1.01,0.29,2.81,0.58,4.61,1.01c1.94,0.5,4.03,1.37,5.26,1.22
		c3.82-0.5,1.66-4.61,1.01-5.54c-3.17-5.04-5.33-8.35-6.98-7.06c-0.43,0.36-0.43-0.86-0.43-1.3c0.07-1.66,0.94-2.23,1.44-3.53
		c0.94-2.45,1.66-5.18,3.1-6.62c1.08-1.37,2.74-3.67,3.1-4.82c-0.29-2.59-0.36-5.33-0.36-7.78c-0.07-2.52,0.36-4.82,3.24-6.34
		c0.72-0.36,1.58-0.5,2.59-0.5c1.73,0,3.67,0.43,4.82,1.37c1.94,1.44,3.17,4.54,3.02,6.7c-0.14,1.73,0.22,3.46,0.72,5.33
		c0.65,2.16,1.66,3.67,3.31,5.47c1.94,2.09,3.53,6.19,3.96,8.86c0.43,2.45-0.14,3.96-0.65,4.03c-0.79,0.14-1.3,2.66-3.82,2.52
		c-1.58-0.07-1.73-1.01-2.16-1.8c-0.72-1.3-1.44-0.86-1.73,0.43c-0.14,0.65-0.07,1.66,0.14,2.45c0.43,1.58,0.29,3.02,0,4.82
		c-0.5,3.46,2.38,4.1,4.39,2.45c1.94-1.58,2.38-1.87,4.82-2.74c3.74-1.3,2.45-2.38,0.5-3.1c-1.8-0.58-1.87-3.6-1.22-4.18
		c0.14,3.24,1.8,3.74,2.52,4.18C56.16,51.62,51.91,53.21,50.11,54.07z M41.9,44.57c0.36-0.43,0.72-0.43,1.3-0.43
		c0.07-1.94,3.17-1.8,4.18-1.01c0-0.43-0.94-0.86-1.37-1.08c0.65-2.23,0.36-3.1-0.07-5.26c-0.36-1.58-1.8-3.74-2.95-4.46
		c0.29,0.29,0.86,1.01,1.44,2.09c1.01,1.87,2.02,4.61,1.37,6.91c-0.29,0.86-0.86,1.01-1.22,1.01c-1.8,0.22-0.72-2.09-1.44-5.18
		c-0.79-3.46-1.66-3.74-1.87-4.03c-1.01-4.54-2.16-4.1-2.45-5.76c-0.29-1.51,1.3-2.74-0.86-3.17c-0.65-0.14-1.58-0.79-2.02-0.86
		c-0.36-0.07-0.58-2.52,0.79-2.59c1.37-0.07,1.66,1.58,1.37,2.23c-0.36,0.65,0,0.86,0.72,0.65c0.58-0.14,0.22-1.66,0.36-1.87
		c-0.36-2.09-1.22-2.38-2.16-2.52c-3.46,0.29-1.87,4.03-2.23,3.67c-0.5-0.5-1.94,0-1.94-0.36c0-1.94-0.65-3.1-1.51-3.1
		c-1.01,0-1.44,1.37-1.44,2.16c-0.07,0.72,0.43,2.3,0.79,2.23c0.22-0.07,0.65-0.58,0.22-0.58c-0.22,0-0.58-0.5-0.58-1.15
		c0-0.65,0.22-1.3,1.08-1.3c1.01,0.07,1.01,1.94,0.86,2.09c-0.29,0.22-0.72,0.65-0.79,0.72c-0.29,0.5-0.94,0.65-1.15,0.86
		c-0.43,0.43-0.5,0.94-0.22,1.15c1.15,0.65,0.79,1.37,2.38,1.44c1.01,0.07,1.8-0.14,2.52-0.36c0.58-0.14,2.3-0.58,2.74-1.22
		c0.14-0.29,0.36-0.29,0.5-0.22c0.22,0.14,0.29,0.58-0.36,0.79c-0.86,0.22-1.8,0.72-2.52,1.01c-0.79,0.29-1.01,0.43-1.73,0.58
		c-1.66,0.29-2.88-0.58-1.73,0.5c0.36,0.36,0.72,0.58,1.66,0.58c2.09-0.07,4.39-2.59,4.61-1.44c0.07,0.22-0.65,0.58-1.22,0.79
		c-1.94,0.94-3.31,2.88-4.54,2.16c-1.15-0.58-2.23-3.38-2.23-2.09c0,1.94-2.52,3.6-1.37,5.76c-0.79,0.22-2.52,3.89-2.74,5.76
		c-0.14,1.08,0.07,2.45-0.14,3.17c-0.36,1.08-2.09-1.01-1.51-3.67c0.07-0.43,0-0.58-0.14-0.36c-0.72,1.22-0.29,2.95,0.22,4.1
		c0.22,0.5,0.79,0.72,1.22,1.22c0.86,1.01,4.32,3.53,4.9,4.18c0.72,0.72,0.58,2.45-1.08,2.59c0.79,1.51,1.58,1.66,1.58,4.25
		c0.94-0.5,0.58-1.58,0.14-2.3c-0.29-0.5-0.65-0.72-0.58-0.79c0.07-0.07,0.5-0.5,0.79-0.14c0.86,0.94,2.45,1.08,4.18,0.94
		c1.73-0.22,3.53-0.79,4.39-2.16c0.43-0.65,0.65-0.86,0.86-0.72c0.22,0.14,0.29,0.58,0.22,1.3c0,0.79-0.36,1.66-0.58,2.3
		c-0.22,0.79-0.29,1.3,0.43,1.3c0.22-1.37,0.58-2.81,0.72-4.18C41.76,49.03,40.61,46.08,41.9,44.57z M31.39,22.1
		c-0.07,0.29,0,0.5,0.22,0.5c0,0,0.07,0,0.07-0.07c0.07-0.65-0.22-1.08-0.36-1.08c-0.29-0.07-0.29,0.36-0.14,0.36
		C31.32,21.74,31.46,21.89,31.39,22.1z M37.01,21.24c-0.29,0-0.22,0.22-0.07,0.22c0.22,0.07,0.36,0.43,0.43,0.79
		c0,0,0.29-0.07,0.29-0.14C37.73,21.53,37.15,21.24,37.01,21.24z"/>
</g>
</svg>
