<?xml version="1.0" encoding="utf-8"?>
<!-- Generator: Adobe Illustrator 23.0.1, SVG Export Plug-In . SVG Version: 6.00 Build 0)  -->
<svg version="1.1" id="Layer_1" xmlns="http://www.w3.org/2000/svg" xmlns:xlink="http://www.w3.org/1999/xlink" x="0px" y="0px"
	 viewBox="0 0 72 72" style="enable-background:new 0 0 72 72;" xml:space="preserve">
<style type="text/css">
	.st0{fill:#001D26;}
	.st1{fill:#31C5F0;}
</style>
<g>
	<g>
		<path class="st0" d="M36,69.98C17.28,69.98,2.02,54.72,2.02,36S17.28,2.02,36,2.02S69.98,17.28,69.98,36S54.72,69.98,36,69.98z"/>
		<path class="st1" d="M36,4.1c17.57,0,31.9,14.33,31.9,31.9S53.57,67.9,36,67.9S4.1,53.57,4.1,36S18.43,4.1,36,4.1 M36,0
			C16.13,0,0,16.13,0,36s16.13,36,36,36s36-16.13,36-36S55.87,0,36,0L36,0z"/>
	</g>
	<path class="st1" d="M47.88,32.62c-2.02,0-2.74,1.01-2.74,1.87c0,0.94,0.43,1.58,3.17,2.95c4.03,1.94,5.33,3.82,5.33,6.55
		c0,4.1-3.17,6.34-7.42,6.34c-2.23,0-4.18-0.43-5.26-1.08c-0.14-0.07-0.22-0.22-0.22-0.43v-3.74c0-0.29,0.14-0.36,0.29-0.22
		c1.58,1.08,3.46,1.51,5.18,1.51c2.02,0,2.88-0.86,2.88-2.02c0-0.94-0.58-1.73-3.17-3.1c-3.67-1.73-5.18-3.53-5.18-6.48
		c0-3.31,2.59-6.05,7.13-6.05c2.23,0,3.74,0.36,4.61,0.72c0.22,0.14,0.29,0.36,0.29,0.5v3.53c0,0.22-0.14,0.36-0.36,0.29
		C51.26,33.05,49.61,32.62,47.88,32.62L47.88,32.62z M25.78,35.71c0.58,0.07,1.08,0.07,2.09,0.07c3.02,0,5.83-1.08,5.83-5.11
		c0-3.24-2.02-4.9-5.47-4.9c-1.01,0-2.02,0.07-2.45,0.07C25.78,25.85,25.78,35.71,25.78,35.71z M21.24,22.03
		c0-0.14,0.36-0.29,0.58-0.29c1.66-0.07,4.1-0.14,6.62-0.14c7.13,0,9.86,3.89,9.86,8.93c0,6.55-4.75,9.36-10.51,9.36
		c-1.01,0-1.3-0.07-2.02-0.07v9.86c0,0.22-0.07,0.29-0.29,0.29h-3.96c-0.22,0-0.29-0.07-0.29-0.29L21.24,22.03L21.24,22.03z"/>
</g>
</svg>
