<?xml version="1.0" encoding="utf-8"?>
<!-- Generator: Adobe Illustrator 23.0.1, SVG Export Plug-In . SVG Version: 6.00 Build 0)  -->
<svg version="1.1" id="Layer_1" xmlns="http://www.w3.org/2000/svg" xmlns:xlink="http://www.w3.org/1999/xlink" x="0px" y="0px"
	 viewBox="0 0 72 72" style="enable-background:new 0 0 72 72;" xml:space="preserve">
<style type="text/css">
	.st0{fill:#F5F5F5;}
</style>
<g>
	<path class="st0" d="M36,0C16.13,0,0,16.13,0,36s16.13,36,36,36s36-16.13,36-36S55.87,0,36,0z"/>
	<g>
		<path d="M35.97,54.95c-5.6,0-11.2-0.01-16.8,0c-1.94,0-3.6-0.64-4.92-2.07c-1.11-1.2-1.66-2.64-1.66-4.27
			c-0.01-6.88-0.02-13.75,0-20.63c0.01-3.53,2.85-6.32,6.39-6.32c1.44,0,2.87-0.01,4.31,0.01c0.35,0.01,0.55-0.1,0.68-0.42
			c0.24-0.56,0.52-1.11,0.78-1.67c0.44-0.95,1.22-1.54,2.14-1.97c0.86-0.4,1.77-0.57,2.72-0.57c4.26,0,8.53,0,12.79,0
			c1.4,0,2.69,0.37,3.81,1.25c0.55,0.44,0.93,0.99,1.17,1.66c0.2,0.55,0.51,1.06,0.81,1.56c0.06,0.1,0.29,0.14,0.45,0.14
			c1.45,0.01,2.9,0.01,4.35,0.01c3.15,0,5.73,2.12,6.31,5.22c0.08,0.43,0.11,0.88,0.11,1.33c0.01,6.72,0,13.44,0.01,20.16
			c0,3.83-2.72,6.58-6.56,6.58C47.23,54.96,41.6,54.95,35.97,54.95z M46.37,38.33c0.01-5.7-4.63-10.35-10.35-10.37
			c-5.72-0.01-10.37,4.61-10.39,10.32c-0.03,5.7,4.62,10.34,10.35,10.35C41.71,48.65,46.36,44.04,46.37,38.33z"/>
		<path d="M36.02,30.85c4.13,0.01,7.48,3.35,7.48,7.47c-0.01,4.13-3.38,7.46-7.54,7.45c-4.12-0.01-7.46-3.37-7.45-7.49
			C28.51,34.17,31.88,30.85,36.02,30.85z"/>
	</g>
</g>
</svg>
