<?xml version="1.0" encoding="utf-8"?>
<!-- Generator: Adobe Illustrator 23.0.1, SVG Export Plug-In . SVG Version: 6.00 Build 0)  -->
<svg version="1.1" id="Layer_1" xmlns="http://www.w3.org/2000/svg" xmlns:xlink="http://www.w3.org/1999/xlink" x="0px" y="0px"
	 viewBox="0 0 72 72" style="enable-background:new 0 0 72 72;" xml:space="preserve">
<style type="text/css">
	.st0{fill:#36447F;}
	.st1{fill:#C9D5F7;}
</style>
<g>
	<g>
		<g>
			<circle class="st0" cx="36" cy="36" r="36"/>
		</g>
	</g>
	<g id="Layer_2_1_">
		<g>
			<g>
				<path class="st1" d="M19.94,30.74c1.66,0,2.74,0.29,3.31,0.94c0.58,0.58,0.65,1.66,0.36,3.1c-0.29,1.51-0.86,2.66-1.73,3.31
					S19.73,39.1,18,39.1h-2.66l1.58-8.35C16.92,30.74,19.94,30.74,19.94,30.74z M9.36,47.52h4.32l1.01-5.33h3.74
					c1.66,0,2.95-0.14,4.03-0.5c1.08-0.36,2.02-0.94,2.88-1.73c0.72-0.65,1.3-1.44,1.8-2.23c0.43-0.79,0.79-1.73,0.94-2.66
					c0.43-2.38,0.14-4.18-1.01-5.54c-1.15-1.3-2.95-1.94-5.47-1.94h-8.35L9.36,47.52z"/>
				<path class="st1" d="M32.47,22.32h4.32l-1.01,5.33h3.82c2.38,0,4.1,0.43,4.97,1.3c0.94,0.86,1.22,2.23,0.79,4.1l-1.8,9.29h-4.39
					l1.73-8.78c0.22-1.01,0.14-1.66-0.22-2.02c-0.36-0.36-1.08-0.58-2.16-0.58h-3.46l-2.23,11.38h-4.32L32.47,22.32z"/>
				<path class="st1" d="M55.01,30.74c1.66,0,2.74,0.29,3.31,0.94c0.58,0.58,0.65,1.66,0.36,3.1c-0.29,1.51-0.86,2.66-1.73,3.31
					c-0.86,0.65-2.16,1.01-3.89,1.01H50.4l1.58-8.35C51.98,30.74,55.01,30.74,55.01,30.74z M44.42,47.52h4.32l1.01-5.33h3.74
					c1.66,0,2.95-0.14,4.03-0.5c1.08-0.36,2.02-0.94,2.88-1.73c0.72-0.65,1.3-1.44,1.8-2.23c0.43-0.79,0.79-1.73,0.94-2.66
					c0.43-2.38,0.14-4.18-1.01-5.54c-1.15-1.3-2.95-1.94-5.47-1.94h-8.35L44.42,47.52z"/>
			</g>
		</g>
	</g>
</g>
</svg>
