<?xml version="1.0" encoding="utf-8"?>
<!-- Generator: Adobe Illustrator 23.0.1, SVG Export Plug-In . SVG Version: 6.00 Build 0)  -->
<svg version="1.1" id="Layer_1" xmlns="http://www.w3.org/2000/svg" xmlns:xlink="http://www.w3.org/1999/xlink" x="0px" y="0px"
	 viewBox="0 0 72 72" style="enable-background:new 0 0 72 72;" xml:space="preserve">
<style type="text/css">
	.st0{fill:#F5F5F5;}
	.st1{fill:#336791;}
	.st2{fill:#FFFFFF;}
	.st3{fill:none;stroke:#FFFFFF;stroke-width:3;stroke-linecap:round;stroke-linejoin:round;}
</style>
<g>
	<path class="st0" d="M36,0C16.13,0,0,16.13,0,36s16.13,36,36,36s36-16.13,36-36S55.87,0,36,0z"/>
	<g id="Layer_x0020_3">
		<g>
			<path d="M46.77,50.17c0.31-2.6,0.22-2.98,2.15-2.56l0.49,0.04c1.49,0.07,3.43-0.24,4.58-0.77c2.46-1.14,3.92-3.05,1.49-2.55
				c-5.53,1.14-5.91-0.73-5.91-0.73c5.84-8.67,8.29-19.68,6.18-22.37c-5.75-7.35-15.71-3.87-15.87-3.78l-0.05,0.01
				c-1.09-0.23-2.32-0.36-3.69-0.38c-2.5-0.04-4.4,0.66-5.85,1.75c0,0-17.76-7.32-16.93,9.2c0.18,3.51,5.04,26.59,10.83,19.62
				c2.12-2.55,4.17-4.7,4.17-4.7c1.02,0.68,2.23,1.02,3.51,0.9l0.1-0.08c-0.03,0.32-0.02,0.63,0.04,0.99
				c-1.49,1.67-1.05,1.96-4.04,2.58c-3.02,0.62-1.25,1.73-0.09,2.02c1.4,0.35,4.65,0.85,6.85-2.23l-0.09,0.35
				c0.59,0.47,0.55,3.37,0.63,5.44c0.08,2.07,0.22,4.01,0.64,5.15c0.42,1.14,0.92,4.08,4.84,3.24
				C44.03,60.59,46.54,59.58,46.77,50.17"/>
			<path d="M39.47,63.5c-1.78,0-2.95-0.69-3.66-1.36c-1.06-1-1.48-2.29-1.73-3.05c-0.04-0.12-0.08-0.23-0.1-0.31
				c-0.5-1.35-0.67-3.29-0.77-5.78c-0.01-0.37-0.03-0.76-0.04-1.16c-0.01-0.25-0.01-0.53-0.03-0.83c-1.69,0.74-3.66,0.87-5.77,0.34
				c-0.94-0.24-1.92-0.71-2.53-1.45c-1.68,1.4-3.28,1.19-4.16,0.9c-1.57-0.52-2.97-1.98-4.28-4.46c-0.92-1.75-1.81-4.02-2.65-6.76
				c-1.45-4.77-2.38-9.79-2.46-11.44c-0.26-5.2,1.15-8.93,4.18-11.07c2.51-1.77,5.93-2.31,10.18-1.62c1.81,0.3,3.37,0.76,4.35,1.09
				c1.76-1.05,3.82-1.55,6.16-1.52c1.24,0.02,2.43,0.13,3.53,0.32c1.18-0.37,3.46-0.88,6.04-0.85c4.85,0.06,8.87,1.95,11.63,5.47
				c1.89,2.41,1.19,7.16,0.26,10.73c-1.03,3.99-2.82,8.23-5.02,11.95c0.58-0.02,1.38-0.1,2.46-0.32c2.69-0.56,3.43,1.03,3.6,1.52
				c0.83,2.52-2.71,4.39-3.81,4.9c-1.4,0.65-3.67,1.04-5.53,0.96l-0.09-0.01l-0.33-0.03c-0.01,0.08-0.02,0.17-0.03,0.25
				c-0.01,0.12-0.03,0.25-0.05,0.39c-0.12,4.8-0.81,7.84-2.23,9.86c-1.5,2.14-3.58,2.73-5.4,3.13C40.56,63.44,39.99,63.5,39.47,63.5
				z M35.92,45.87c1.17,0.94,1.28,2.65,1.36,5.85c0.01,0.38,0.02,0.76,0.04,1.11c0.04,1.05,0.14,3.49,0.52,4.51
				c0.06,0.15,0.1,0.3,0.16,0.46c0.43,1.31,0.6,1.85,2.33,1.48c1.52-0.33,2.3-0.62,2.9-1.47c0.9-1.28,1.4-3.86,1.49-7.69l2.06,0.05
				l-2.04-0.25c0.02-0.17,0.04-0.32,0.06-0.47c0.18-1.53,0.32-2.74,1.41-3.53c0.69-0.49,1.47-0.56,2.14-0.5
				c-0.56-0.57-0.73-1.15-0.79-1.41l-0.17-0.84l0.48-0.71c2.55-3.78,4.65-8.43,5.78-12.76c1.14-4.41,0.82-6.75,0.49-7.19
				c-4.57-5.84-12.53-3.46-13.4-3.17l-0.15,0.08l-0.77,0.14l-0.39-0.08c-1-0.21-2.11-0.32-3.31-0.34c-1.85-0.03-3.35,0.41-4.57,1.33
				l-0.94,0.71l-1.09-0.45c-2.13-0.87-8.38-2.62-11.65-0.3c-1.8,1.28-2.62,3.8-2.44,7.5c0.06,1.28,0.93,6.08,2.37,10.71
				c1.97,6.35,3.71,8.11,4.2,8.26c0.06-0.03,0.28-0.14,0.63-0.56c2.14-2.57,4.17-4.71,4.26-4.8l1.19-1.25l1.44,0.96
				c0.5,0.33,1.04,0.52,1.6,0.57l3.42-2.91l-0.5,5.07c-0.01,0.1-0.01,0.23,0.02,0.48l0.15,0.96l-0.65,0.73
				c-0.01,0.01-0.01,0.01-0.02,0.02l1.6,0.74L35.92,45.87z"/>
		</g>
		<path class="st1" d="M55.48,44.34c-5.53,1.14-5.91-0.73-5.91-0.73c5.84-8.67,8.29-19.68,6.18-22.37
			c-5.75-7.35-15.71-3.87-15.87-3.78l-0.05,0.01c-1.09-0.23-2.32-0.36-3.69-0.38c-2.5-0.04-4.4,0.66-5.85,1.75
			c0,0-17.76-7.32-16.93,9.2c0.18,3.51,5.04,26.59,10.83,19.62c2.12-2.55,4.17-4.7,4.17-4.7c1.02,0.68,2.23,1.02,3.51,0.9l0.1-0.08
			c-0.03,0.32-0.02,0.63,0.04,0.99c-1.49,1.67-1.05,1.96-4.04,2.58c-3.02,0.62-1.25,1.73-0.09,2.02c1.4,0.35,4.65,0.85,6.85-2.23
			l-0.09,0.35c0.59,0.47,1,3.05,0.93,5.39c-0.07,2.34-0.11,3.94,0.35,5.2s0.92,4.08,4.85,3.24c3.28-0.7,4.98-2.52,5.22-5.56
			c0.17-2.16,0.55-1.84,0.57-3.77l0.3-0.91c0.35-2.93,0.06-3.87,2.08-3.43l0.49,0.04c1.49,0.07,3.43-0.24,4.58-0.77
			C56.45,45.75,57.91,43.84,55.48,44.34L55.48,44.34z"/>
		<path class="st2" d="M39.67,62.22c-3.3,0-4.35-2.61-4.78-3.68c-0.63-1.57-0.76-7.43-0.62-12.54c0.01-0.38,0.33-0.67,0.7-0.67
			c0.38,0.01,0.68,0.33,0.67,0.7c-0.16,5.69,0.07,10.85,0.52,11.99c0.71,1.77,1.78,3.32,4.82,2.67c2.93-0.63,3.97-1.68,4.46-4.51
			c0.37-2.16,1.11-8.32,1.2-9.54c0.03-0.38,0.36-0.66,0.74-0.63c0.38,0.03,0.66,0.36,0.63,0.74c-0.1,1.27-0.83,7.42-1.22,9.67
			c-0.58,3.36-2.08,4.88-5.52,5.62C40.69,62.17,40.15,62.22,39.67,62.22z"/>
		<path class="st2" d="M21.94,49.57c-0.32,0-0.61-0.06-0.86-0.14c-2.14-0.71-4.18-4.19-6.05-10.32c-1.42-4.66-2.32-9.53-2.4-11.11
			c-0.24-4.7,0.98-8.03,3.61-9.89c5.19-3.68,13.91-0.18,14.28-0.03c0.35,0.14,0.52,0.54,0.38,0.89c-0.14,0.35-0.54,0.52-0.89,0.38
			c-0.1-0.04-8.4-3.36-12.97-0.12c-2.22,1.57-3.24,4.5-3.03,8.7c0.07,1.33,0.91,6.07,2.34,10.78c1.66,5.45,3.55,8.88,5.17,9.42
			c0.25,0.08,1.01,0.34,2.11-0.98c2.11-2.54,4.05-4.56,4.07-4.58c0.26-0.27,0.7-0.28,0.97-0.02c0.27,0.26,0.28,0.7,0.02,0.97
			c-0.02,0.02-1.93,2.01-4,4.51C23.68,49.22,22.72,49.57,21.94,49.57z"/>
		<path class="st2" d="M49.53,44.23c-0.13,0-0.27-0.04-0.38-0.12c-0.31-0.21-0.4-0.64-0.19-0.95c5.9-8.75,7.97-19.31,6.21-21.57
			c-2.22-2.84-5.36-4.33-9.33-4.41c-2.94-0.06-5.29,0.69-5.67,0.82c-0.03,0.02-0.07,0.03-0.1,0.04c-0.42,0.13-0.74-0.1-0.86-0.37
			c-0.14-0.32-0.03-0.69,0.27-0.87c0.26-0.16,2.96-1.03,6.19-1c4.43,0.05,8.09,1.76,10.59,4.94c1.68,2.15,0.57,7.39,0.02,9.54
			c-1.19,4.63-3.44,9.6-6.17,13.64C49.96,44.12,49.75,44.23,49.53,44.23z"/>
		<path class="st2" d="M49.83,48.28c-1.02,0-1.93-0.14-2.48-0.47c-0.58-0.35-0.69-0.82-0.7-1.07c-0.15-2.63,1.26-3.15,2.04-3.38
			c-0.1-0.14-0.23-0.31-0.36-0.47c-0.44-0.55-1.04-1.3-1.51-2.43c-0.07-0.17-0.3-0.58-0.56-1.05c-1.43-2.56-4.4-7.89-2.48-10.63
			c0.88-1.26,2.62-1.77,5.18-1.51c-0.34-1.01-1.19-2.89-2.77-4.75c-1.83-2.16-5.07-4.75-10.12-4.83c-2.56-0.04-4.67,0.74-6.25,2.34
			c-3.54,3.57-3.42,10.07-3.42,10.14c0.01,0.38-0.29,0.69-0.67,0.7c-0.38,0.01-0.69-0.29-0.7-0.67c-0.01-0.29-0.14-7.14,3.81-11.13
			c1.85-1.87,4.29-2.8,7.25-2.75c5.51,0.09,9.06,2.89,11.06,5.22c2.18,2.54,3.26,5.35,3.35,6.29c0.07,0.75-0.51,0.89-0.57,0.91
			l-0.25,0.01c-1.73-0.28-3.96-0.36-4.78,0.81c-1.43,2.04,1.36,7.04,2.55,9.18c0.31,0.55,0.53,0.95,0.63,1.19
			c0.39,0.95,0.9,1.58,1.31,2.09c0.36,0.46,0.68,0.85,0.8,1.32c0.06,0.1,0.82,1.13,5.12,0.25c1.13-0.23,1.81-0.03,2.02,0.61
			c0.41,1.23-1.84,2.65-3.09,3.23C53.13,47.96,51.36,48.28,49.83,48.28z M48.01,46.61c0.17,0.14,0.88,0.36,2.27,0.29
			c1.26-0.06,2.59-0.34,3.38-0.7c0.92-0.43,1.57-0.91,1.95-1.26c-0.01,0-0.02,0-0.03,0.01c-2.82,0.58-4.81,0.5-5.93-0.24
			c-0.07-0.05-0.13-0.09-0.19-0.14c-0.09,0.03-0.19,0.06-0.29,0.09C48.53,44.83,47.94,45,48.01,46.61z"/>
		<path class="st2" d="M29.85,50.23c-0.7,0-1.43-0.09-2.18-0.28c-0.22-0.05-2.13-0.57-2.1-1.79c0.02-1.12,1.62-1.45,2.22-1.57
			c2.11-0.43,2.25-0.61,2.9-1.44c0.19-0.25,0.44-0.55,0.77-0.92l0,0c1.1-1.23,2.13-0.8,2.57-0.62c0.69,0.29,1.27,0.98,1.51,1.81
			c0.21,0.75,0.11,1.47-0.29,2.03C33.94,49.28,32.07,50.23,29.85,50.23z M27.08,48.22c0.2,0.14,0.54,0.3,0.92,0.39
			c1.83,0.46,4.38,0.49,6.13-1.96c0.21-0.29,0.14-0.66,0.09-0.86c-0.12-0.42-0.41-0.79-0.71-0.92c-0.37-0.15-0.58-0.24-1.03,0.26
			c0,0,0,0,0,0c-0.3,0.34-0.52,0.61-0.71,0.86c-0.84,1.06-1.22,1.42-3.7,1.93C27.55,48.04,27.25,48.14,27.08,48.22z M31.96,44.68
			L31.96,44.68L31.96,44.68z"/>
		<path class="st2" d="M31.86,45.34c-0.33,0-0.62-0.24-0.68-0.58c-0.01-0.09-0.02-0.18-0.03-0.27c-1.61-0.04-3.16-0.74-4.34-1.97
			c-1.51-1.57-2.19-3.75-1.88-5.98c0.33-2.39,0.21-4.51,0.14-5.64c-0.02-0.32-0.03-0.55-0.03-0.71c0-0.21,0.01-0.76,1.81-1.68
			c0.64-0.32,1.91-0.88,3.31-1.03c2.32-0.24,3.86,0.8,4.32,2.92c1.23,5.67,0.1,8.18-0.73,10.01c-0.15,0.34-0.3,0.66-0.41,0.97
			l-0.1,0.27c-0.43,1.16-0.81,2.16-0.69,2.9c0.06,0.37-0.2,0.72-0.57,0.78C31.93,45.34,31.9,45.34,31.86,45.34z M26.42,30.38
			c0.01,0.11,0.01,0.26,0.02,0.43c0.07,1.18,0.2,3.39-0.15,5.92c-0.25,1.81,0.3,3.57,1.51,4.84c0.96,1,2.21,1.55,3.5,1.55
			c0.15-0.61,0.39-1.25,0.64-1.94l0.1-0.27c0.13-0.35,0.28-0.69,0.45-1.05c0.79-1.75,1.77-3.93,0.64-9.16
			c-0.22-1.01-0.74-1.6-1.61-1.79C29.64,28.46,26.99,29.88,26.42,30.38z"/>
		<g>
			<path class="st2" d="M30.19,30.09c-0.03,0.22,0.41,0.82,0.99,0.9c0.58,0.08,1.07-0.39,1.1-0.61c0.03-0.22-0.41-0.47-0.99-0.55
				C30.71,29.75,30.22,29.87,30.19,30.09L30.19,30.09z"/>
			<path class="st2" d="M31.3,31.23c-0.05,0-0.1,0-0.16-0.01c-0.36-0.05-0.73-0.28-0.98-0.61c-0.09-0.12-0.23-0.34-0.2-0.55
				c0.01-0.08,0.05-0.19,0.18-0.29c0.23-0.17,0.68-0.24,1.18-0.17c0.31,0.04,0.59,0.13,0.8,0.25c0.37,0.21,0.4,0.44,0.38,0.56
				C32.46,30.76,31.91,31.23,31.3,31.23z M30.42,30.13c0.04,0.15,0.36,0.57,0.79,0.63c0.43,0.06,0.79-0.28,0.84-0.4
				c-0.05-0.07-0.31-0.24-0.79-0.31C30.79,29.99,30.49,30.08,30.42,30.13z"/>
		</g>
		<g>
			<path class="st2" d="M47.73,29.63c0.03,0.22-0.41,0.82-0.99,0.9c-0.58,0.08-1.07-0.39-1.1-0.61c-0.03-0.22,0.41-0.47,0.99-0.55
				S47.7,29.41,47.73,29.63L47.73,29.63z"/>
			<path class="st2" d="M46.61,30.66c-0.57,0-1.05-0.45-1.08-0.72c-0.05-0.34,0.51-0.6,1.09-0.68c0.58-0.08,1.18,0.02,1.23,0.36l0,0
				c0.02,0.15-0.09,0.39-0.3,0.6c-0.13,0.14-0.41,0.38-0.79,0.43C46.71,30.66,46.66,30.66,46.61,30.66z M46.99,29.46
				c-0.1,0-0.22,0.01-0.34,0.02c-0.6,0.08-0.9,0.32-0.89,0.42c0.02,0.15,0.46,0.59,0.97,0.51c0.31-0.04,0.54-0.25,0.65-0.36
				c0.17-0.18,0.24-0.35,0.24-0.41l0,0C47.61,29.57,47.38,29.46,46.99,29.46z"/>
		</g>
		<path class="st2" d="M48.56,42.56c-0.13,0-0.26-0.04-0.38-0.12c-0.31-0.21-0.4-0.64-0.19-0.95c1.34-2,1.09-4.05,0.86-6.03
			c-0.1-0.85-0.21-1.73-0.18-2.57c0.03-0.87,0.14-1.58,0.24-2.27c0.13-0.82,0.24-1.59,0.2-2.5c-0.02-0.38,0.27-0.7,0.65-0.72
			c0.38-0.02,0.7,0.27,0.72,0.65c0.06,1.05-0.08,1.93-0.21,2.78c-0.1,0.65-0.2,1.32-0.23,2.11c-0.02,0.74,0.07,1.53,0.17,2.36
			c0.26,2.12,0.54,4.53-1.08,6.95C49,42.45,48.78,42.56,48.56,42.56z"/>
		<path class="st3" d="M11.21,21.13"/>
	</g>
</g>
</svg>
