<?xml version="1.0" encoding="utf-8"?>
<!-- Generator: Adobe Illustrator 23.0.1, SVG Export Plug-In . SVG Version: 6.00 Build 0)  -->
<svg version="1.1" id="Layer_1" xmlns="http://www.w3.org/2000/svg" xmlns:xlink="http://www.w3.org/1999/xlink" x="0px" y="0px"
	 viewBox="0 0 72 72" style="enable-background:new 0 0 72 72;" xml:space="preserve">
<style type="text/css">
	.st0{fill:#CC0000;}
	.st1{fill:#FFFFFF;}
</style>
<g>
	<circle id="ellipse" class="st0" cx="36" cy="36" r="36"/>
	<g id="logo" transform="translate(-273.27313,-435.95455)">
		<path id="path3966" class="st1" d="M291.64,492.63h21.97c0,0-4.87-11.07-3.63-21.22c1.24-10.15,9.25-14.78,13.8-15.27
			c4.54-0.49,7.02,2.31,7.02,2.31l0.98-1.49c0,0-6.53-6.61-14.78-5.86c-8.25,0.75-13.95,6.19-17.51,12.8
			c-3.54,6.61-5.61,11.24-7.02,18.17C291.07,489,291.64,492.63,291.64,492.63z"/>
		<path id="path3968" class="st1" d="M287.27,481.57l4.29,0.32l-0.75,4.29l-4.05-0.49L287.27,481.57z"/>
		<path id="path3970" class="st1" d="M294.03,472.48l1.15-3.22l-3.8-1.49l-1.24,3.47L294.03,472.48z"/>
		<path id="path3972" class="st1" d="M299.41,461.43l2.24-2.64l-2.88-1.9l-2.32,2.56L299.41,461.43z"/>
		<path id="path3974" class="st1" d="M305.27,451.19l1.98,2.39l2.73-1.58l-1.98-2.24L305.27,451.19z"/>
		<path id="path3976" class="st1" d="M314.93,448.46l0.49,2.39l3.39-0.08l-0.34-2.15L314.93,448.46z"/>
		<path id="path3978" class="st1" d="M326.41,451.02l-0.08,1.49l2.31,1.24l0.49-0.75L326.41,451.02z"/>
		<path id="path3980" class="st1" d="M325.91,457.38v1.24l2.24,0.25v-0.98L325.91,457.38z"/>
		<path id="path3982" class="st1" d="M318.81,458.45l1.07,1.98l1.57-1.24l-0.32-1.32L318.81,458.45z"/>
		<path id="path3984" class="st1" d="M315.42,461.01l1.65,2.48l-0.98,1.73l-2.39-2.64L315.42,461.01z"/>
		<path id="path3986" class="st1" d="M312.12,467.87l-1.07,2.15l2.81,2.39l0.66-2.73L312.12,467.87z"/>
		<path id="path3988" class="st1" d="M310.96,475.38l-0.17,2.88l3.47,1.49l-0.17-2.73L310.96,475.38z"/>
		<path id="path3990" class="st1" d="M311.96,485.62l0.83,2.97l4.37,0.25l-1.58-3.22H311.96L311.96,485.62z"/>
	</g>
</g>
</svg>
