<?xml version="1.0" encoding="utf-8"?>
<!-- Generator: Adobe Illustrator 23.0.1, SVG Export Plug-In . SVG Version: 6.00 Build 0)  -->
<svg version="1.1" id="Layer_1" xmlns="http://www.w3.org/2000/svg" xmlns:xlink="http://www.w3.org/1999/xlink" x="0px" y="0px"
	 viewBox="0 0 72 72" style="enable-background:new 0 0 72 72;" xml:space="preserve">
<style type="text/css">
	.st0{fill:#292929;}
	.st1{fill:#00DBFC;}
</style>
<g>
	<g>
		<g>
			<g>
				<g>
					<circle class="st0" cx="36" cy="36" r="36"/>
				</g>
			</g>
		</g>
	</g>
	<g>
		<circle class="st1" cx="36" cy="35.93" r="3.96"/>
		<path class="st1" d="M55.87,32.04c-1.37-1.15-3.31-2.16-5.62-2.95c-0.43-0.14-0.94-0.29-1.44-0.43c0.07-0.36,0.14-0.65,0.22-1.01
			c1.08-5.33,0.29-9.5-2.02-10.87c-1.15-0.65-2.74-0.65-4.54,0c-1.66,0.65-3.53,1.8-5.33,3.38c-0.36,0.29-0.72,0.65-1.08,1.01
			c-0.22-0.22-0.5-0.43-0.72-0.65c-4.03-3.6-8.06-5.04-10.44-3.67c-1.15,0.65-1.94,2.02-2.3,3.96c-0.29,1.73-0.22,3.96,0.29,6.34
			c0.07,0.5,0.22,0.94,0.36,1.44c-0.58,0.14-1.15,0.36-1.66,0.5c-4.82,1.66-7.7,4.25-7.7,6.84c0,1.37,0.79,2.81,2.3,4.03
			c1.44,1.22,3.46,2.3,5.76,3.1c0.36,0.14,0.79,0.29,1.22,0.36c-0.14,0.5-0.22,1.08-0.36,1.58c-0.94,4.97-0.14,8.78,2.09,10.08
			c0.58,0.36,1.3,0.5,2.09,0.5c0.79,0,1.66-0.14,2.59-0.5c1.8-0.65,3.67-1.8,5.54-3.46c0.29-0.29,0.65-0.58,0.94-0.86
			c0.43,0.36,0.79,0.72,1.22,1.08c2.81,2.45,5.54,3.74,7.7,3.74c0.79,0,1.51-0.14,2.09-0.5c1.15-0.72,2.02-2.09,2.38-4.03
			c0.36-1.87,0.29-4.1-0.22-6.55c-0.07-0.36-0.14-0.79-0.29-1.15c0.29-0.07,0.58-0.14,0.79-0.29c5.18-1.73,8.35-4.46,8.35-7.2
			C58.1,34.63,57.31,33.26,55.87,32.04z M43.13,18.58c1.3-0.43,2.3-0.5,2.95-0.14c1.3,0.72,2.16,3.82,1.15,8.86
			c-0.07,0.29-0.14,0.58-0.22,0.86c-1.87-0.43-3.82-0.72-5.9-0.94c-1.22-1.73-2.45-3.31-3.74-4.68c0.36-0.36,0.65-0.65,1.01-0.94
			C40.03,20.16,41.69,19.15,43.13,18.58z M42.19,39.6c-0.72,1.22-1.37,2.38-2.09,3.38c-1.3,0.07-2.66,0.14-4.03,0.14
			s-2.74-0.07-4.03-0.14c-0.72-1.08-1.51-2.23-2.16-3.46c-0.72-1.15-1.3-2.38-1.87-3.6c0.58-1.22,1.22-2.38,1.87-3.53l0,0
			c0.72-1.15,1.44-2.3,2.16-3.46c1.3-0.07,2.66-0.14,4.03-0.14c1.37,0,2.74,0.07,4.03,0.14c0.72,1.08,1.44,2.23,2.16,3.38
			c0.72,1.22,1.37,2.38,1.94,3.53C43.49,37.15,42.91,38.38,42.19,39.6z M45.07,38.16c0.58,1.37,1.08,2.66,1.51,3.89
			c-1.3,0.29-2.66,0.5-4.1,0.72c0.43-0.72,0.94-1.51,1.37-2.23C44.28,39.74,44.71,38.95,45.07,38.16z M36.07,48.17
			c-0.86-0.94-1.8-2.02-2.66-3.17c0.86,0,1.73,0.07,2.59,0.07c0.94,0,1.8,0,2.66-0.07C37.8,46.15,36.94,47.23,36.07,48.17z
			 M29.59,42.77c-1.44-0.14-2.81-0.36-4.1-0.65c0.36-1.3,0.86-2.59,1.44-3.89c0.43,0.79,0.79,1.51,1.22,2.3
			C28.66,41.33,29.09,42.05,29.59,42.77z M28.22,31.46c-0.43,0.79-0.86,1.51-1.22,2.3c-0.58-1.3-1.01-2.59-1.44-3.82
			c1.3-0.29,2.59-0.5,4.03-0.72C29.09,29.95,28.66,30.74,28.22,31.46z M36,23.9c0.86,0.94,1.73,2.02,2.59,3.17
			C37.73,27,36.86,27,35.93,27c-0.86,0-1.73,0-2.59,0.07C34.27,25.92,35.14,24.84,36,23.9z M43.78,31.46
			c-0.43-0.79-0.86-1.51-1.37-2.23c1.44,0.14,2.74,0.43,4.03,0.72c-0.36,1.22-0.86,2.52-1.44,3.82
			C44.71,33.05,44.28,32.26,43.78,31.46z M24.7,26.78c-0.43-2.16-0.5-4.1-0.22-5.62c0.22-1.3,0.72-2.23,1.37-2.66
			c1.3-0.72,4.39,0,8.21,3.46c0.22,0.22,0.43,0.43,0.65,0.65c-1.3,1.37-2.52,2.95-3.74,4.68c-2.09,0.22-4.1,0.5-5.9,0.94
			C24.91,27.65,24.84,27.22,24.7,26.78z M22.61,41.33c-4.68-1.58-6.84-3.89-6.84-5.4c0-1.44,2.02-3.53,6.41-5.04
			c0.5-0.14,1.01-0.36,1.51-0.5c0.58,1.8,1.3,3.67,2.16,5.62c-0.86,1.94-1.66,3.82-2.16,5.69C23.33,41.54,22.97,41.47,22.61,41.33z
			 M27,53.78c-0.5,0-0.86-0.07-1.15-0.29c-1.22-0.72-2.09-3.46-1.15-8.06c0.07-0.5,0.22-0.94,0.29-1.44
			c1.8,0.43,3.82,0.72,5.98,0.86c1.22,1.73,2.52,3.31,3.82,4.68c-0.29,0.29-0.58,0.5-0.86,0.79C31.1,52.78,28.58,53.78,27,53.78z
			 M47.38,44.93c0.94,4.82,0,7.85-1.22,8.57s-4.03,0.07-7.56-3.02c-0.36-0.29-0.72-0.65-1.08-1.01c1.22-1.37,2.52-2.95,3.74-4.68
			c2.16-0.22,4.18-0.5,5.98-0.94C47.23,44.21,47.3,44.57,47.38,44.93z M49.18,41.33c-0.22,0.07-0.5,0.14-0.72,0.22
			c-0.58-1.73-1.3-3.67-2.23-5.62c0.86-1.87,1.58-3.74,2.16-5.54c0.43,0.14,0.86,0.29,1.3,0.43c2.09,0.72,3.82,1.66,4.97,2.59
			c1.01,0.86,1.58,1.73,1.58,2.52C56.23,37.44,54,39.74,49.18,41.33z"/>
	</g>
</g>
</svg>
