<?xml version="1.0" encoding="utf-8"?>
<!-- Generator: Adobe Illustrator 23.0.1, SVG Export Plug-In . SVG Version: 6.00 Build 0)  -->
<svg version="1.1" id="Layer_1" xmlns="http://www.w3.org/2000/svg" xmlns:xlink="http://www.w3.org/1999/xlink" x="0px" y="0px"
	 viewBox="0 0 72 72" style="enable-background:new 0 0 72 72;" xml:space="preserve">
<style type="text/css">
	.st0{fill:#CC0000;}
	.st1{fill:#FFFFFF;}
</style>
<g>
	<circle id="ellipse_1_" class="st0" cx="36" cy="36" r="36"/>
	<g>
		<path class="st1" d="M60.96,31.03H11.04c-0.4,0-0.77-0.23-0.94-0.6c-0.17-0.37-0.11-0.8,0.15-1.11l11.97-14.2
			c0.2-0.23,0.49-0.37,0.8-0.37h25.98c0.31,0,0.6,0.14,0.8,0.37l11.97,14.2c0.26,0.31,0.32,0.74,0.15,1.11
			C61.73,30.8,61.36,31.03,60.96,31.03z M13.28,28.95h45.44L48.51,16.83H23.5L13.28,28.95z"/>
		<polygon class="st1" points="36,61.25 10.25,30.66 11.84,29.32 36,58.02 60.16,29.32 61.75,30.66 		"/>
		<path class="st1" d="M36,60.67L36,60.67c-0.44,0-0.83-0.28-0.98-0.69L24.57,30.34c-0.11-0.32-0.06-0.68,0.14-0.96l10.45-14.2
			c0.39-0.53,1.28-0.53,1.67,0l10.45,14.2c0.2,0.28,0.26,0.64,0.14,0.96L36.98,59.98C36.83,60.39,36.44,60.67,36,60.67z
			 M26.71,30.17L36,56.5l9.29-26.34L36,17.55L26.71,30.17z"/>
		
			<rect x="23.24" y="15.68" transform="matrix(0.9844 -0.1759 0.1759 0.9844 -3.6483 4.6283)" class="st1" width="2.08" height="14.42"/>
		
			<rect x="40.51" y="21.85" transform="matrix(0.176 -0.9844 0.9844 0.176 16.7864 65.8397)" class="st1" width="14.42" height="2.08"/>
	</g>
</g>
</svg>
