<?xml version="1.0" encoding="utf-8"?>
<!-- Generator: Adobe Illustrator 23.0.1, SVG Export Plug-In . SVG Version: 6.00 Build 0)  -->
<svg version="1.1" id="Layer_1" xmlns="http://www.w3.org/2000/svg" xmlns:xlink="http://www.w3.org/1999/xlink" x="0px" y="0px"
	 viewBox="0 0 72 72" style="enable-background:new 0 0 72 72;" xml:space="preserve">
<style type="text/css">
	.st0{fill:#CC6699;}
	.st1{fill:#FFFFFF;}
</style>
<g>
	<g>
		<g>
			<g>
				<g>
					<circle class="st0" cx="36" cy="36" r="36"/>
				</g>
			</g>
		</g>
	</g>
	<path class="st1" d="M55.37,20.02c-0.43-1.73-1.66-3.17-3.53-4.18c-3.67-1.94-9.58-2.02-14.98-0.07
		c-3.24,1.15-9.36,3.74-13.97,7.99c-4.61,4.32-5.33,8.14-4.97,9.65c0.79,4.18,5.18,7.13,8.64,9.58c0.94,0.65,1.8,1.22,2.45,1.8
		c-1.94,1.01-7.2,3.96-8.64,7.06c-1.08,2.45-0.58,4.25-0.14,5.04c0.43,0.94,1.15,1.66,1.87,1.87c0.72,0.22,1.51,0.29,2.3,0.29
		c3.1,0,6.12-1.66,7.99-4.46c1.87-2.81,2.02-6.55,1.15-8.86c1.22-0.29,2.52-0.29,3.96-0.14c2.81,0.36,4.18,1.44,4.82,2.3
		c0.72,0.94,0.86,1.87,0.79,2.45c-0.14,1.08-1.01,1.73-1.44,2.02c-0.36,0.22-0.65,0.43-0.58,0.86c0.14,0.58,0.72,0.5,0.94,0.5
		c0.65-0.14,2.95-1.3,3.1-3.89c0.07-1.58-0.58-3.17-1.8-4.46c-1.58-1.66-3.96-2.52-6.7-2.45c-2.02,0-3.38,0.22-4.46,0.58l-0.07-0.07
		c-1.01-1.08-2.38-2.09-3.6-3.1c-2.88-2.16-5.54-4.25-5.4-7.34c0.22-3.89,4.03-7.7,11.45-11.38c6.55-3.24,11.88-3.38,14.69-2.38
		c1.15,0.43,1.94,1.01,2.23,1.66c0.58,1.22,0.36,2.81-0.65,4.54c-1.66,2.88-5.83,6.48-12.24,7.2c-3.89,0.43-5.54-1.3-5.62-1.37
		c-0.43-0.5-0.72-0.79-1.22-0.5c-0.58,0.29-0.29,1.08-0.14,1.37c0.29,0.79,1.51,2.16,3.6,2.88c1.66,0.58,5.9,0.94,11.16-1.08
		C52.42,31.46,56.59,24.98,55.37,20.02z M30.53,50.69c-0.07,0.14-0.07,0.29-0.14,0.43c-0.07,0.14-0.14,0.29-0.14,0.43
		c-0.29,0.65-0.72,1.3-1.3,1.87c-1.66,1.8-3.89,2.3-4.61,1.87c-0.22-0.14-0.29-0.36-0.36-0.65c-0.14-0.86,0.36-2.59,1.87-4.1
		c1.8-1.87,4.32-3.24,4.9-3.53C30.96,48.31,30.89,49.54,30.53,50.69z"/>
</g>
</svg>
