<?xml version="1.0" encoding="utf-8"?>
<!-- Generator: Adobe Illustrator 23.0.1, SVG Export Plug-In . SVG Version: 6.00 Build 0)  -->
<svg version="1.1" id="Layer_1" xmlns="http://www.w3.org/2000/svg" xmlns:xlink="http://www.w3.org/1999/xlink" x="0px" y="0px"
	 viewBox="0 0 72 72" style="enable-background:new 0 0 72 72;" xml:space="preserve">
<style type="text/css">
	.st0{fill:#F5F5F5;}
	.st1{fill-rule:evenodd;clip-rule:evenodd;fill:#007ACC;}
</style>
<g>
	<path class="st0" d="M36,0C16.13,0,0,16.13,0,36s16.13,36,36,36s36-16.13,36-36S55.87,0,36,0z"/>
	<g>
		<path id="path951" class="st1" d="M44.56,14.55V51.4l-32.18-4.78l32.18,10.83l10.73-4.46V19.67l0,0l0-0.01v-0.66L44.56,14.55z"/>
		<path id="path887" class="st1" d="M33.3,20.82l-9.86,9.74l-5.93-4.47l-2.45,0.82l6.04,5.97l-6.04,5.97l2.45,0.82l5.93-4.47h0
			l9.85,9.74l5.9-2.51v-19.1L33.3,20.82z M33.3,27.78v10.21l-6.78-5.11L33.3,27.78z"/>
	</g>
</g>
</svg>
